<svg width="1080" height="2587" viewBox="0 0 1080 2587" fill="none" xmlns="http://www.w3.org/2000/svg">
<rect width="1080" height="2587" fill="#080808"/>
<path d="M136.827 359.314C137.314 360.575 137.902 361.722 138.59 362.754C139.307 363.786 140.181 364.617 141.213 365.248C142.245 365.85 143.478 366.151 144.911 366.151C146.86 366.151 148.38 365.621 149.469 364.56C150.587 363.471 151.146 362.095 151.146 360.432C151.146 358.97 150.816 357.795 150.157 356.906C149.498 356.017 148.638 355.301 147.577 354.756C146.545 354.183 145.456 353.681 144.309 353.251C143.449 352.936 142.546 352.563 141.6 352.133C140.683 351.674 139.823 351.13 139.02 350.499C138.217 349.84 137.558 349.051 137.042 348.134C136.555 347.217 136.311 346.113 136.311 344.823C136.311 343.39 136.655 342.128 137.343 341.039C138.031 339.921 138.991 339.061 140.224 338.459C141.457 337.828 142.847 337.513 144.395 337.513C146 337.513 147.376 337.814 148.523 338.416C149.698 339.018 150.673 339.778 151.447 340.695C152.221 341.612 152.809 342.558 153.21 343.533L151.146 344.694C150.831 343.92 150.372 343.16 149.77 342.415C149.197 341.67 148.466 341.053 147.577 340.566C146.688 340.05 145.585 339.792 144.266 339.792C142.517 339.792 141.17 340.251 140.224 341.168C139.278 342.057 138.805 343.175 138.805 344.522C138.805 345.64 139.077 346.6 139.622 347.403C140.167 348.206 140.984 348.937 142.073 349.596C143.162 350.227 144.51 350.829 146.115 351.402C146.946 351.717 147.806 352.104 148.695 352.563C149.584 353.022 150.386 353.595 151.103 354.283C151.848 354.971 152.45 355.802 152.909 356.777C153.368 357.723 153.597 358.855 153.597 360.174C153.597 361.407 153.368 362.525 152.909 363.528C152.479 364.531 151.863 365.406 151.06 366.151C150.286 366.868 149.369 367.427 148.308 367.828C147.247 368.201 146.101 368.387 144.868 368.387C143.119 368.387 141.586 368.029 140.267 367.312C138.948 366.595 137.845 365.635 136.956 364.431C136.067 363.227 135.379 361.923 134.892 360.518L136.827 359.314ZM159.162 334.46H161.398V368H159.162V334.46ZM169.869 348.22H172.75L163.419 356.39L173.567 368H170.729L160.581 356.39L169.869 348.22ZM175.22 358.11C175.22 356.103 175.664 354.326 176.553 352.778C177.441 351.23 178.645 350.012 180.165 349.123C181.713 348.234 183.447 347.79 185.368 347.79C187.288 347.79 189.008 348.234 190.528 349.123C192.076 350.012 193.294 351.23 194.183 352.778C195.071 354.326 195.516 356.103 195.516 358.11C195.516 360.088 195.071 361.865 194.183 363.442C193.294 364.99 192.076 366.208 190.528 367.097C189.008 367.986 187.288 368.43 185.368 368.43C183.447 368.43 181.713 367.986 180.165 367.097C178.645 366.208 177.441 364.99 176.553 363.442C175.664 361.865 175.22 360.088 175.22 358.11ZM177.499 358.11C177.499 359.715 177.843 361.134 178.531 362.367C179.219 363.6 180.15 364.574 181.326 365.291C182.53 365.979 183.877 366.323 185.368 366.323C186.858 366.323 188.191 365.979 189.367 365.291C190.571 364.574 191.517 363.6 192.205 362.367C192.893 361.134 193.237 359.715 193.237 358.11C193.237 356.533 192.893 355.129 192.205 353.896C191.517 352.635 190.571 351.66 189.367 350.972C188.191 350.255 186.858 349.897 185.368 349.897C183.877 349.897 182.53 350.255 181.326 350.972C180.15 351.66 179.219 352.62 178.531 353.853C177.843 355.086 177.499 356.505 177.499 358.11ZM213.696 355.272C213.696 353.581 213.324 352.262 212.578 351.316C211.833 350.37 210.658 349.897 209.052 349.897C207.934 349.897 206.931 350.169 206.042 350.714C205.182 351.23 204.494 351.947 203.978 352.864C203.491 353.781 203.247 354.813 203.247 355.96V368H201.011V348.22H203.247V352.348C203.792 350.915 204.609 349.797 205.698 348.994C206.816 348.191 208.106 347.79 209.568 347.79C211.632 347.79 213.209 348.449 214.298 349.768C215.388 351.058 215.932 352.807 215.932 355.014V368H213.696V355.272ZM223.108 362.367C223.395 363.084 223.782 363.743 224.269 364.345C224.757 364.947 225.373 365.434 226.118 365.807C226.892 366.18 227.795 366.366 228.827 366.366C230.031 366.366 230.992 366.065 231.708 365.463C232.454 364.832 232.826 363.972 232.826 362.883C232.826 362.08 232.597 361.421 232.138 360.905C231.68 360.36 231.078 359.916 230.332 359.572C229.587 359.199 228.784 358.87 227.924 358.583C227.007 358.239 226.118 357.852 225.258 357.422C224.398 356.992 223.682 356.419 223.108 355.702C222.564 354.957 222.291 353.996 222.291 352.821C222.291 351.703 222.564 350.771 223.108 350.026C223.682 349.281 224.413 348.736 225.301 348.392C226.219 348.019 227.193 347.833 228.225 347.833C229.343 347.833 230.347 348.019 231.235 348.392C232.124 348.765 232.884 349.252 233.514 349.854C234.145 350.456 234.632 351.13 234.976 351.875L233.127 352.993C232.669 352.133 232.024 351.388 231.192 350.757C230.361 350.126 229.286 349.811 227.967 349.811C226.993 349.811 226.161 350.055 225.473 350.542C224.814 351.029 224.484 351.746 224.484 352.692C224.484 353.466 224.699 354.111 225.129 354.627C225.559 355.114 226.133 355.516 226.849 355.831C227.566 356.146 228.326 356.447 229.128 356.734C230.189 357.135 231.164 357.58 232.052 358.067C232.97 358.554 233.701 359.156 234.245 359.873C234.819 360.59 235.105 361.507 235.105 362.625C235.105 364.345 234.503 365.75 233.299 366.839C232.124 367.9 230.59 368.43 228.698 368.43C227.322 368.43 226.118 368.186 225.086 367.699C224.083 367.212 223.266 366.581 222.635 365.807C222.033 365.033 221.589 364.23 221.302 363.399L223.108 362.367ZM237.914 348.22H246.6V350.327H237.914V348.22ZM241.139 341.34H243.375V368H241.139V341.34ZM253.038 348.22V368H250.802V348.22H253.038ZM259.617 350.843C259.187 350.528 258.772 350.298 258.37 350.155C257.998 349.983 257.553 349.897 257.037 349.897C256.063 349.897 255.274 350.169 254.672 350.714C254.099 351.259 253.683 351.99 253.425 352.907C253.167 353.824 253.038 354.842 253.038 355.96H252.006C252.006 354.383 252.25 352.993 252.737 351.789C253.225 350.556 253.884 349.582 254.715 348.865C255.575 348.148 256.521 347.79 257.553 347.79C258.184 347.79 258.772 347.89 259.316 348.091C259.89 348.263 260.406 348.564 260.864 348.994L259.617 350.843ZM267.326 360.776C267.326 362.496 267.698 363.858 268.444 364.861C269.189 365.836 270.364 366.323 271.97 366.323C273.088 366.323 274.077 366.051 274.937 365.506C275.825 364.961 276.513 364.23 277.001 363.313C277.517 362.396 277.775 361.378 277.775 360.26V348.22H280.011V368H277.775V363.872C277.23 365.305 276.413 366.423 275.324 367.226C274.234 368.029 272.944 368.43 271.454 368.43C269.39 368.43 267.813 367.771 266.724 366.452C265.634 365.105 265.09 363.299 265.09 361.034V348.22H267.326V360.776ZM289.466 360.776C289.466 362.496 289.838 363.858 290.584 364.861C291.329 365.836 292.504 366.323 294.11 366.323C295.228 366.323 296.217 366.051 297.077 365.506C297.965 364.961 298.653 364.23 299.141 363.313C299.657 362.396 299.915 361.378 299.915 360.26V348.22H302.151V368H299.915V363.872C299.37 365.305 298.553 366.423 297.464 367.226C296.374 368.029 295.084 368.43 293.594 368.43C291.53 368.43 289.953 367.771 288.864 366.452C287.774 365.105 287.23 363.299 287.23 361.034V348.22H289.466V360.776ZM308.854 339.276C308.854 338.817 308.997 338.445 309.284 338.158C309.599 337.871 309.986 337.728 310.445 337.728C310.875 337.728 311.233 337.871 311.52 338.158C311.835 338.445 311.993 338.817 311.993 339.276C311.993 339.706 311.835 340.079 311.52 340.394C311.233 340.681 310.875 340.824 310.445 340.824C309.986 340.824 309.599 340.681 309.284 340.394C308.997 340.079 308.854 339.706 308.854 339.276ZM303.866 373.762C304.152 374.163 304.511 374.507 304.941 374.794C305.371 375.081 305.887 375.224 306.489 375.224C307.234 375.224 307.822 375.023 308.252 374.622C308.682 374.249 308.983 373.719 309.155 373.031C309.327 372.343 309.413 371.569 309.413 370.709V348.22H311.649V370.967C311.649 372.2 311.462 373.303 311.09 374.278C310.717 375.281 310.129 376.055 309.327 376.6C308.553 377.173 307.564 377.46 306.36 377.46C305.786 377.46 305.27 377.374 304.812 377.202C304.324 377.03 303.909 376.801 303.565 376.514C303.192 376.256 302.877 375.955 302.619 375.611L303.866 373.762ZM334.889 348.22V368H332.653V348.22H334.889ZM341.468 350.843C341.038 350.528 340.623 350.298 340.221 350.155C339.849 349.983 339.404 349.897 338.888 349.897C337.914 349.897 337.125 350.169 336.523 350.714C335.95 351.259 335.534 351.99 335.276 352.907C335.018 353.824 334.889 354.842 334.889 355.96H333.857C333.857 354.383 334.101 352.993 334.588 351.789C335.076 350.556 335.735 349.582 336.566 348.865C337.426 348.148 338.372 347.79 339.404 347.79C340.035 347.79 340.623 347.89 341.167 348.091C341.741 348.263 342.257 348.564 342.715 348.994L341.468 350.843ZM344.591 358.11C344.591 356.103 345.035 354.326 345.924 352.778C346.813 351.23 348.017 350.012 349.536 349.123C351.084 348.234 352.818 347.79 354.739 347.79C356.66 347.79 358.38 348.234 359.899 349.123C361.447 350.012 362.665 351.23 363.554 352.778C364.443 354.326 364.887 356.103 364.887 358.11C364.887 360.088 364.443 361.865 363.554 363.442C362.665 364.99 361.447 366.208 359.899 367.097C358.38 367.986 356.66 368.43 354.739 368.43C352.818 368.43 351.084 367.986 349.536 367.097C348.017 366.208 346.813 364.99 345.924 363.442C345.035 361.865 344.591 360.088 344.591 358.11ZM346.87 358.11C346.87 359.715 347.214 361.134 347.902 362.367C348.59 363.6 349.522 364.574 350.697 365.291C351.901 365.979 353.248 366.323 354.739 366.323C356.23 366.323 357.563 365.979 358.738 365.291C359.942 364.574 360.888 363.6 361.576 362.367C362.264 361.134 362.608 359.715 362.608 358.11C362.608 356.533 362.264 355.129 361.576 353.896C360.888 352.635 359.942 351.66 358.738 350.972C357.563 350.255 356.23 349.897 354.739 349.897C353.248 349.897 351.901 350.255 350.697 350.972C349.522 351.66 348.59 352.62 347.902 353.853C347.214 355.086 346.87 356.505 346.87 358.11ZM361.189 338.115L353.578 344.694L352.331 343.834L359.125 336.954L361.189 338.115ZM381.262 350.327H368.835V348.22H385.347L371.802 365.893H385.003V368H367.717L381.262 350.327ZM375.5 342.329C375.5 341.87 375.657 341.483 375.973 341.168C376.288 340.853 376.661 340.695 377.091 340.695C377.549 340.695 377.922 340.853 378.209 341.168C378.524 341.483 378.682 341.87 378.682 342.329C378.682 342.759 378.524 343.132 378.209 343.447C377.922 343.762 377.549 343.92 377.091 343.92C376.661 343.92 376.288 343.762 375.973 343.447C375.657 343.132 375.5 342.759 375.5 342.329ZM402.772 355.272C402.772 353.581 402.399 352.262 401.654 351.316C400.909 350.37 399.733 349.897 398.128 349.897C397.01 349.897 396.007 350.169 395.118 350.714C394.258 351.23 393.57 351.947 393.054 352.864C392.567 353.781 392.323 354.813 392.323 355.96V368H390.087V348.22H392.323V352.348C392.868 350.915 393.685 349.797 394.774 348.994C395.892 348.191 397.182 347.79 398.644 347.79C400.708 347.79 402.285 348.449 403.374 349.768C404.463 351.058 405.008 352.807 405.008 355.014V368H402.772V355.272ZM412.227 339.276C412.227 338.817 412.385 338.445 412.7 338.158C413.015 337.843 413.388 337.685 413.818 337.685C414.277 337.685 414.649 337.843 414.936 338.158C415.251 338.445 415.409 338.817 415.409 339.276C415.409 339.706 415.251 340.079 414.936 340.394C414.649 340.709 414.277 340.867 413.818 340.867C413.388 340.867 413.015 340.709 412.7 340.394C412.385 340.079 412.227 339.706 412.227 339.276ZM412.7 348.22H414.936V368H412.7V348.22ZM422.995 358.11C422.995 359.715 423.339 361.134 424.027 362.367C424.715 363.6 425.647 364.574 426.822 365.291C428.026 365.979 429.373 366.323 430.864 366.323C431.925 366.323 432.914 366.165 433.831 365.85C434.748 365.535 435.537 365.133 436.196 364.646C436.884 364.13 437.371 363.614 437.658 363.098V365.893C437.056 366.61 436.124 367.212 434.863 367.699C433.63 368.186 432.297 368.43 430.864 368.43C428.943 368.43 427.223 367.986 425.704 367.097C424.185 366.208 422.966 364.99 422.049 363.442C421.16 361.865 420.716 360.088 420.716 358.11C420.716 356.103 421.16 354.326 422.049 352.778C422.966 351.23 424.185 350.012 425.704 349.123C427.223 348.234 428.943 347.79 430.864 347.79C432.297 347.79 433.63 348.048 434.863 348.564C436.124 349.051 437.056 349.639 437.658 350.327V353.122C437.371 352.577 436.884 352.061 436.196 351.574C435.537 351.087 434.748 350.685 433.831 350.37C432.914 350.055 431.925 349.897 430.864 349.897C429.373 349.897 428.026 350.255 426.822 350.972C425.647 351.66 424.715 352.62 424.027 353.853C423.339 355.086 422.995 356.505 422.995 358.11ZM443.524 358.669V356.734H458.23C458.23 355.387 457.943 354.197 457.37 353.165C456.797 352.104 456.008 351.273 455.005 350.671C454.03 350.069 452.898 349.768 451.608 349.768C450.318 349.768 449.128 350.069 448.039 350.671C446.95 351.273 446.075 352.147 445.416 353.294C444.757 354.412 444.427 355.745 444.427 357.293L444.384 358.067C444.384 359.73 444.685 361.192 445.287 362.453C445.889 363.686 446.72 364.646 447.781 365.334C448.87 365.993 450.117 366.323 451.522 366.323C452.783 366.323 453.844 366.137 454.704 365.764C455.593 365.363 456.338 364.861 456.94 364.259C457.571 363.628 458.101 362.955 458.531 362.238L460.337 363.399C459.764 363.972 459.205 364.56 458.66 365.162C458.144 365.764 457.556 366.309 456.897 366.796C456.266 367.283 455.492 367.685 454.575 368C453.686 368.287 452.583 368.43 451.264 368.43C449.544 368.43 447.982 367.986 446.577 367.097C445.201 366.208 444.112 364.976 443.309 363.399C442.506 361.822 442.105 360.045 442.105 358.067C442.105 357.608 442.119 357.178 442.148 356.777C442.205 356.347 442.277 355.917 442.363 355.487C442.707 353.968 443.295 352.635 444.126 351.488C444.957 350.313 446.018 349.41 447.308 348.779C448.598 348.12 450.031 347.79 451.608 347.79C453.328 347.79 454.876 348.206 456.252 349.037C457.628 349.84 458.703 350.972 459.477 352.434C460.28 353.896 460.681 355.616 460.681 357.594C460.681 357.766 460.667 357.952 460.638 358.153C460.638 358.325 460.624 358.497 460.595 358.669H443.524ZM460.552 371.87L461.498 373.289C461.183 373.719 460.624 374.106 459.821 374.45C459.047 374.823 458.201 375.009 457.284 375.009C456.424 375.009 455.636 374.88 454.919 374.622C454.202 374.364 453.629 373.963 453.199 373.418C452.798 372.902 452.597 372.257 452.597 371.483C452.597 370.824 452.783 370.179 453.156 369.548C453.529 368.946 454.002 368.344 454.575 367.742C455.148 367.14 455.765 366.509 456.424 365.85C457.112 365.191 457.757 364.503 458.359 363.786L460.337 363.399C459.248 364.689 458.287 365.764 457.456 366.624C456.625 367.455 455.98 368.186 455.521 368.817C455.062 369.448 454.833 370.107 454.833 370.795C454.833 371.512 455.105 372.056 455.65 372.429C456.195 372.83 456.868 373.031 457.671 373.031C458.359 373.031 458.932 372.916 459.391 372.687C459.85 372.458 460.237 372.185 460.552 371.87ZM476.487 348.22H478.981L484.313 363.528L489.989 347.059L496.095 363.571L501.427 348.22H503.921L496.224 369.161L490.032 352.692L484.184 369.161L476.487 348.22ZM514.955 368.43C513.177 368.43 511.601 367.986 510.225 367.097C508.849 366.208 507.759 364.99 506.957 363.442C506.183 361.865 505.796 360.074 505.796 358.067C505.796 356.06 506.197 354.283 507 352.735C507.802 351.187 508.92 349.983 510.354 349.123C511.787 348.234 513.435 347.79 515.299 347.79C517.105 347.79 518.681 348.206 520.029 349.037C521.405 349.868 522.465 351.029 523.211 352.52C523.985 353.982 524.372 355.673 524.372 357.594C524.372 357.766 524.357 357.952 524.329 358.153C524.329 358.354 524.314 358.526 524.286 358.669H507.215V356.734H522.609L521.663 358.067C521.72 357.924 521.777 357.737 521.835 357.508C521.921 357.25 521.964 357.006 521.964 356.777C521.964 355.43 521.663 354.226 521.061 353.165C520.487 352.104 519.699 351.273 518.696 350.671C517.692 350.069 516.56 349.768 515.299 349.768C513.837 349.768 512.561 350.112 511.472 350.8C510.411 351.459 509.58 352.405 508.978 353.638C508.376 354.842 508.075 356.275 508.075 357.938C508.075 359.629 508.361 361.106 508.935 362.367C509.537 363.628 510.368 364.603 511.429 365.291C512.518 365.979 513.779 366.323 515.213 366.323C516.732 366.323 518.051 365.993 519.169 365.334C520.315 364.675 521.333 363.643 522.222 362.238L524.028 363.399C522.91 365.119 521.605 366.395 520.115 367.226C518.653 368.029 516.933 368.43 514.955 368.43ZM529.65 334.46H531.886V368H529.65V334.46ZM540.357 348.22H543.238L533.907 356.39L544.055 368H541.217L531.069 356.39L540.357 348.22ZM545.048 348.22H553.734V350.327H545.048V348.22ZM548.273 341.34H550.509V368H548.273V341.34ZM556.216 358.11C556.216 356.103 556.661 354.326 557.549 352.778C558.438 351.23 559.642 350.012 561.161 349.123C562.709 348.234 564.444 347.79 566.364 347.79C568.285 347.79 570.005 348.234 571.524 349.123C573.072 350.012 574.291 351.23 575.179 352.778C576.068 354.326 576.512 356.103 576.512 358.11C576.512 360.088 576.068 361.865 575.179 363.442C574.291 364.99 573.072 366.208 571.524 367.097C570.005 367.986 568.285 368.43 566.364 368.43C564.444 368.43 562.709 367.986 561.161 367.097C559.642 366.208 558.438 364.99 557.549 363.442C556.661 361.865 556.216 360.088 556.216 358.11ZM558.495 358.11C558.495 359.715 558.839 361.134 559.527 362.367C560.215 363.6 561.147 364.574 562.322 365.291C563.526 365.979 564.874 366.323 566.364 366.323C567.855 366.323 569.188 365.979 570.363 365.291C571.567 364.574 572.513 363.6 573.201 362.367C573.889 361.134 574.233 359.715 574.233 358.11C574.233 356.533 573.889 355.129 573.201 353.896C572.513 352.635 571.567 351.66 570.363 350.972C569.188 350.255 567.855 349.897 566.364 349.897C564.874 349.897 563.526 350.255 562.322 350.972C561.147 351.66 560.215 352.62 559.527 353.853C558.839 355.086 558.495 356.505 558.495 358.11ZM584.244 348.22V368H582.008V348.22H584.244ZM590.823 350.843C590.393 350.528 589.977 350.298 589.576 350.155C589.203 349.983 588.759 349.897 588.243 349.897C587.268 349.897 586.48 350.169 585.878 350.714C585.305 351.259 584.889 351.99 584.631 352.907C584.373 353.824 584.244 354.842 584.244 355.96H583.212C583.212 354.383 583.456 352.993 583.943 351.789C584.43 350.556 585.09 349.582 585.921 348.865C586.781 348.148 587.727 347.79 588.759 347.79C589.39 347.79 589.977 347.89 590.522 348.091C591.095 348.263 591.611 348.564 592.07 348.994L590.823 350.843ZM593.946 358.11C593.946 356.103 594.39 354.326 595.279 352.778C596.167 351.23 597.371 350.012 598.891 349.123C600.439 348.234 602.173 347.79 604.094 347.79C606.014 347.79 607.734 348.234 609.254 349.123C610.802 350.012 612.02 351.23 612.909 352.778C613.797 354.326 614.242 356.103 614.242 358.11C614.242 360.088 613.797 361.865 612.909 363.442C612.02 364.99 610.802 366.208 609.254 367.097C607.734 367.986 606.014 368.43 604.094 368.43C602.173 368.43 600.439 367.986 598.891 367.097C597.371 366.208 596.167 364.99 595.279 363.442C594.39 361.865 593.946 360.088 593.946 358.11ZM596.225 358.11C596.225 359.715 596.569 361.134 597.257 362.367C597.945 363.6 598.876 364.574 600.052 365.291C601.256 365.979 602.603 366.323 604.094 366.323C605.584 366.323 606.917 365.979 608.093 365.291C609.297 364.574 610.243 363.6 610.931 362.367C611.619 361.134 611.963 359.715 611.963 358.11C611.963 356.533 611.619 355.129 610.931 353.896C610.243 352.635 609.297 351.66 608.093 350.972C606.917 350.255 605.584 349.897 604.094 349.897C602.603 349.897 601.256 350.255 600.052 350.972C598.876 351.66 597.945 352.62 597.257 353.853C596.569 355.086 596.225 356.505 596.225 358.11ZM610.544 338.115L602.933 344.694L601.686 343.834L608.48 336.954L610.544 338.115ZM616.097 348.22H618.591L623.923 363.528L629.599 347.059L635.705 363.571L641.037 348.22H643.531L635.834 369.161L629.642 352.692L623.794 369.161L616.097 348.22ZM648.874 366.968C648.874 366.509 649.032 366.122 649.347 365.807C649.662 365.492 650.035 365.334 650.465 365.334C650.924 365.334 651.296 365.492 651.583 365.807C651.898 366.122 652.056 366.509 652.056 366.968C652.056 367.398 651.898 367.771 651.583 368.086C651.296 368.401 650.924 368.559 650.465 368.559C650.035 368.559 649.662 368.401 649.347 368.086C649.032 367.771 648.874 367.398 648.874 366.968ZM648.874 351.144C648.874 350.714 649.032 350.341 649.347 350.026C649.662 349.711 650.035 349.553 650.465 349.553C650.924 349.553 651.296 349.711 651.583 350.026C651.898 350.341 652.056 350.714 652.056 351.144C652.056 351.603 651.898 351.99 651.583 352.305C651.296 352.62 650.924 352.778 650.465 352.778C650.035 352.778 649.662 352.62 649.347 352.305C649.032 351.99 648.874 351.603 648.874 351.144Z" fill="white"/>
<path d="M162.068 172.43H161.853L154.285 152.779L146.545 172.43H146.33L135.881 146.716C135.394 145.512 134.921 144.566 134.462 143.878C134.003 143.19 133.416 142.559 132.699 141.986V141.9H145.513V141.986C144.911 142.359 144.467 142.746 144.18 143.147C143.922 143.548 143.793 143.993 143.793 144.48C143.793 144.824 143.836 145.197 143.922 145.598C144.008 145.971 144.137 146.386 144.309 146.845L149.899 160.992L153.64 151.188L151.92 146.716C151.433 145.483 150.96 144.537 150.501 143.878C150.071 143.19 149.498 142.559 148.781 141.986V141.9H161.38V141.986C160.778 142.359 160.334 142.746 160.047 143.147C159.789 143.548 159.66 143.993 159.66 144.48C159.66 144.767 159.689 145.082 159.746 145.426C159.832 145.77 159.975 146.243 160.176 146.845L165.25 161.207L170.453 147.361C170.568 147.017 170.654 146.702 170.711 146.415C170.768 146.1 170.797 145.813 170.797 145.555C170.797 144.81 170.596 144.136 170.195 143.534C169.794 142.932 169.206 142.416 168.432 141.986V141.9H175.742V141.986C174.911 142.617 174.194 143.362 173.592 144.222C172.99 145.053 172.474 146.028 172.044 147.146L162.068 172.43ZM186.495 142.33C184.976 142.33 183.729 142.76 182.754 143.62C181.808 144.48 181.335 145.612 181.335 147.017C181.335 148.336 181.794 149.425 182.711 150.285C183.629 151.145 185.392 151.991 188 152.822C190.294 153.539 191.899 154.126 192.816 154.585C193.734 155.015 194.522 155.488 195.181 156.004C196.213 156.835 196.987 157.839 197.503 159.014C198.019 160.161 198.277 161.494 198.277 163.013C198.277 165.822 197.188 168.101 195.009 169.85C192.859 171.57 190.107 172.43 186.753 172.43C186.037 172.43 185.306 172.373 184.56 172.258C183.815 172.172 182.826 171.971 181.593 171.656C180.819 171.455 180.246 171.326 179.873 171.269C179.529 171.212 179.228 171.183 178.97 171.183C178.483 171.183 177.996 171.283 177.508 171.484C177.05 171.656 176.534 171.971 175.96 172.43L175.186 162.454H175.272C176.734 165.263 178.483 167.485 180.518 169.119C182.554 170.753 184.618 171.57 186.71 171.57C188.545 171.57 189.978 171.126 191.01 170.237C192.042 169.32 192.558 168.058 192.558 166.453C192.558 165.478 192.3 164.618 191.784 163.873C191.297 163.128 190.523 162.483 189.462 161.938C189.147 161.766 188.531 161.508 187.613 161.164C186.696 160.82 185.506 160.39 184.044 159.874C180.776 158.813 178.526 157.566 177.293 156.133C176.061 154.7 175.444 152.865 175.444 150.629C175.444 147.877 176.448 145.67 178.454 144.007C180.49 142.316 183.17 141.47 186.495 141.47C187.155 141.47 187.814 141.527 188.473 141.642C189.161 141.728 190.064 141.914 191.182 142.201C191.928 142.402 192.458 142.531 192.773 142.588C193.117 142.645 193.418 142.674 193.676 142.674C194.049 142.674 194.422 142.602 194.794 142.459C195.167 142.287 195.654 141.957 196.256 141.47L196.428 150.156H196.342C194.708 147.318 193.132 145.311 191.612 144.136C190.093 142.932 188.387 142.33 186.495 142.33ZM210.914 147.103V166.754C210.914 168.187 211.071 169.248 211.387 169.936C211.702 170.624 212.333 171.283 213.279 171.914V172H200.465V171.914C201.411 171.283 202.041 170.624 202.357 169.936C202.672 169.248 202.83 168.187 202.83 166.754V147.103C202.83 145.67 202.672 144.623 202.357 143.964C202.041 143.276 201.411 142.617 200.465 141.986V141.9H213.279V141.986C212.333 142.617 211.702 143.276 211.387 143.964C211.071 144.623 210.914 145.67 210.914 147.103ZM242.977 150.715C242.977 153.496 241.945 155.66 239.881 157.208C237.817 158.756 234.95 159.53 231.281 159.53H225.863V166.883C225.863 168.23 226.078 169.234 226.508 169.893C226.938 170.552 227.827 171.226 229.174 171.914V172H215.414V171.914C216.36 171.283 216.991 170.624 217.306 169.936C217.621 169.248 217.779 168.187 217.779 166.754V147.103C217.779 145.67 217.621 144.623 217.306 143.964C216.991 143.276 216.36 142.617 215.414 141.986V141.9H231.195C234.893 141.9 237.774 142.674 239.838 144.222C241.931 145.77 242.977 147.934 242.977 150.715ZM225.863 143.061V158.369H228.4C230.55 158.369 232.213 157.695 233.388 156.348C234.563 155.001 235.151 153.123 235.151 150.715C235.151 148.307 234.563 146.429 233.388 145.082C232.213 143.735 230.55 143.061 228.4 143.061H225.863ZM265.729 177.289H264.439V139.793H265.729V177.289ZM311.459 142.76C311.918 142.76 312.348 142.674 312.749 142.502C313.151 142.33 313.652 141.986 314.254 141.47L314.555 151.704H314.469C313.265 148.665 311.846 146.358 310.212 144.781C308.578 143.204 306.787 142.416 304.837 142.416C302.315 142.416 300.294 143.634 298.774 146.071C297.255 148.508 296.495 151.647 296.495 155.488C296.495 159.329 297.441 162.425 299.333 164.776C301.225 167.127 303.662 168.302 306.643 168.302C308.679 168.302 310.384 167.872 311.76 167.012C313.136 166.152 314.254 164.819 315.114 163.013L315.372 163.099C314.627 166.052 313.136 168.345 310.9 169.979C308.664 171.613 305.898 172.43 302.601 172.43C298.273 172.43 294.718 171.04 291.937 168.259C289.185 165.45 287.809 161.823 287.809 157.38C287.809 152.793 289.357 148.995 292.453 145.985C295.578 142.975 299.434 141.47 304.02 141.47C304.852 141.47 305.669 141.527 306.471 141.642C307.303 141.757 308.32 141.986 309.524 142.33C310.126 142.531 310.542 142.66 310.771 142.717C311.029 142.746 311.259 142.76 311.459 142.76ZM316.773 171.914L329.028 151.618H325.889C324.427 151.618 323.151 152.019 322.062 152.822C320.973 153.596 319.496 155.373 317.633 158.154H317.547L318.149 150.285C318.464 150.428 318.851 150.543 319.31 150.629C319.797 150.686 320.299 150.715 320.815 150.715H337.671V150.801L325.545 171.097H328.34C329.601 171.097 330.662 170.925 331.522 170.581C332.382 170.237 333.228 169.664 334.059 168.861C334.46 168.46 334.905 167.958 335.392 167.356C335.879 166.725 336.725 165.564 337.929 163.873H338.015L336.768 172H316.773V171.914ZM352.175 182.363C350.856 182.363 349.752 181.99 348.864 181.245C347.975 180.5 347.531 179.554 347.531 178.407C347.531 177.346 347.946 176.343 348.778 175.397C349.638 174.48 351.243 173.405 353.594 172.172C353.221 172.258 352.805 172.315 352.347 172.344C351.888 172.401 351.415 172.43 350.928 172.43C347.631 172.43 344.936 171.412 342.844 169.377C340.751 167.342 339.705 164.676 339.705 161.379C339.705 158.14 340.78 155.488 342.93 153.424C345.08 151.331 347.76 150.285 350.971 150.285C354.153 150.285 356.647 151.188 358.453 152.994C360.259 154.8 361.162 157.265 361.162 160.39H347.488C347.488 162.999 348.104 165.077 349.337 166.625C350.598 168.144 352.289 168.904 354.411 168.904C355.815 168.904 357.048 168.589 358.109 167.958C359.169 167.299 360.015 166.338 360.646 165.077L360.947 165.206C360.603 166.525 360.001 167.7 359.141 168.732C358.309 169.735 357.105 170.71 355.529 171.656C354.296 172.401 353.393 173.175 352.82 173.978C352.246 174.809 351.96 175.741 351.96 176.773C351.96 177.633 352.189 178.307 352.648 178.794C353.135 179.31 353.78 179.568 354.583 179.568C355.414 179.568 356.116 179.396 356.69 179.052C357.292 178.737 357.879 178.206 358.453 177.461L358.582 177.547C357.98 179.181 357.148 180.385 356.088 181.159C355.027 181.962 353.723 182.363 352.175 182.363ZM350.971 151.016C349.91 151.016 349.079 151.761 348.477 153.252C347.903 154.714 347.588 156.792 347.531 159.487H353.766C353.766 156.305 353.536 154.098 353.078 152.865C352.648 151.632 351.945 151.016 350.971 151.016ZM370.713 139.793H378.195C377.335 141.57 376.131 143.19 374.583 144.652C373.035 146.114 371.158 147.418 368.95 148.565H368.692C369.294 147.504 369.753 146.257 370.068 144.824C370.412 143.362 370.627 141.685 370.713 139.793ZM371.1 151.016C370.154 151.016 369.38 151.26 368.778 151.747C368.205 152.234 367.918 152.879 367.918 153.682C367.918 154.513 368.219 155.173 368.821 155.66C369.452 156.147 370.914 156.735 373.207 157.423C376.16 158.369 378.21 159.43 379.356 160.605C380.532 161.752 381.119 163.314 381.119 165.292C381.119 167.442 380.317 169.176 378.711 170.495C377.135 171.785 375.028 172.43 372.39 172.43C371.788 172.43 371.172 172.387 370.541 172.301C369.939 172.244 369.122 172.1 368.09 171.871C367.431 171.728 366.944 171.642 366.628 171.613C366.342 171.556 366.084 171.527 365.854 171.527C365.51 171.527 365.195 171.584 364.908 171.699C364.622 171.785 364.206 172.043 363.661 172.473L363.188 164.604H363.274C364.564 167.012 365.955 168.804 367.445 169.979C368.936 171.126 370.584 171.699 372.39 171.699C373.508 171.699 374.397 171.427 375.056 170.882C375.716 170.337 376.045 169.578 376.045 168.603C376.045 167.8 375.759 167.155 375.185 166.668C374.641 166.181 373.222 165.579 370.928 164.862C368.176 164.002 366.213 162.97 365.037 161.766C363.891 160.533 363.317 158.928 363.317 156.95C363.317 155.001 364.048 153.41 365.51 152.177C366.972 150.916 368.836 150.285 371.1 150.285C371.645 150.285 372.175 150.328 372.691 150.414C373.236 150.5 373.967 150.658 374.884 150.887C375.486 151.059 375.931 151.174 376.217 151.231C376.504 151.288 376.762 151.317 376.991 151.317C377.393 151.317 377.765 151.245 378.109 151.102C378.482 150.959 378.912 150.672 379.399 150.242V157.208H379.313C378.367 155.345 377.135 153.854 375.615 152.736C374.125 151.589 372.62 151.016 371.1 151.016ZM393.833 139.793H401.315C400.455 141.57 399.251 143.19 397.703 144.652C396.155 146.114 394.277 147.418 392.07 148.565H391.812C392.414 147.504 392.872 146.257 393.188 144.824C393.532 143.362 393.747 141.685 393.833 139.793ZM398.778 154.413C398.778 153.352 398.491 152.521 397.918 151.919C397.344 151.317 396.542 151.016 395.51 151.016C394.105 151.016 393.016 151.819 392.242 153.424C391.468 155.001 391.081 157.151 391.081 159.874C391.081 162.712 391.668 164.934 392.844 166.539C394.019 168.116 395.639 168.904 397.703 168.904C399.021 168.904 400.197 168.574 401.229 167.915C402.261 167.256 403.092 166.31 403.723 165.077L403.981 165.206C403.407 167.442 402.232 169.205 400.455 170.495C398.706 171.785 396.599 172.43 394.134 172.43C390.952 172.43 388.314 171.441 386.222 169.463C384.129 167.485 383.083 164.919 383.083 161.766C383.083 158.326 384.229 155.56 386.523 153.467C388.816 151.346 391.783 150.285 395.424 150.285C397.86 150.285 399.824 150.787 401.315 151.79C402.805 152.793 403.551 154.141 403.551 155.832C403.551 157.007 403.164 157.953 402.39 158.67C401.644 159.387 400.684 159.745 399.509 159.745C398.477 159.745 397.617 159.516 396.929 159.057C396.241 158.57 395.854 157.968 395.768 157.251C395.882 157.28 396.011 157.308 396.155 157.337C396.298 157.366 396.427 157.38 396.542 157.38C397.258 157.38 397.803 157.122 398.176 156.606C398.577 156.09 398.778 155.359 398.778 154.413ZM429.82 171.785V172H413.394V171.785C413.451 171.756 413.853 171.613 414.598 171.355C415.372 171.068 415.902 170.839 416.189 170.667C416.734 170.409 417.092 170.108 417.264 169.764C417.465 169.42 417.565 168.918 417.565 168.259V145.684C417.565 145.025 417.465 144.523 417.264 144.179C417.063 143.835 416.691 143.534 416.146 143.276C415.831 143.133 415.329 142.932 414.641 142.674C413.953 142.387 413.494 142.201 413.265 142.115V141.9H425.692V168.259C425.692 168.918 425.778 169.42 425.95 169.764C426.151 170.108 426.509 170.409 427.025 170.667C427.34 170.81 427.856 171.025 428.573 171.312C429.29 171.599 429.705 171.756 429.82 171.785ZM452.469 177.289H451.179V139.793H452.469V177.289ZM474.076 171.914L486.331 151.618H483.192C481.73 151.618 480.454 152.019 479.365 152.822C478.275 153.596 476.799 155.373 474.936 158.154H474.85L475.452 150.285C475.767 150.428 476.154 150.543 476.613 150.629C477.1 150.686 477.602 150.715 478.118 150.715H494.974V150.801L482.848 171.097H485.643C486.904 171.097 487.965 170.925 488.825 170.581C489.685 170.237 490.53 169.664 491.362 168.861C491.763 168.46 492.207 167.958 492.695 167.356C493.182 166.725 494.028 165.564 495.232 163.873H495.318L494.071 172H474.076V171.914ZM520.356 170.495C520.528 170.495 520.7 170.481 520.872 170.452C521.044 170.423 521.202 170.38 521.345 170.323V170.409C520.801 171.011 520.055 171.498 519.109 171.871C518.163 172.215 517.174 172.387 516.142 172.387C514.508 172.387 513.204 172.057 512.229 171.398C511.283 170.739 510.71 169.793 510.509 168.56C510.509 168.503 510.495 168.331 510.466 168.044C510.438 167.729 510.423 167.528 510.423 167.442C510.079 168.933 509.277 170.122 508.015 171.011C506.783 171.871 505.278 172.301 503.5 172.301C501.608 172.301 500.075 171.828 498.899 170.882C497.724 169.907 497.136 168.589 497.136 166.926C497.136 165.751 497.423 164.747 497.996 163.916C498.57 163.085 499.458 162.397 500.662 161.852C501.322 161.565 502.096 161.307 502.984 161.078C503.873 160.82 505.235 160.519 507.069 160.175L510.337 159.573V155.402C510.337 154.055 510.051 152.994 509.477 152.22C508.933 151.446 508.13 151.059 507.069 151.059C506.123 151.059 505.378 151.36 504.833 151.962C504.289 152.535 504.016 153.324 504.016 154.327C504.016 155.187 504.188 155.846 504.532 156.305C504.905 156.735 505.421 156.95 506.08 156.95C506.195 156.95 506.324 156.95 506.467 156.95C506.611 156.921 506.754 156.878 506.897 156.821C506.467 157.652 505.851 158.283 505.048 158.713C504.274 159.143 503.357 159.358 502.296 159.358C501.121 159.358 500.146 159.028 499.372 158.369C498.598 157.681 498.211 156.807 498.211 155.746C498.211 154.112 499.043 152.793 500.705 151.79C502.368 150.787 504.561 150.285 507.284 150.285C510.982 150.285 513.691 150.901 515.411 152.134C517.131 153.338 517.991 155.23 517.991 157.81C517.991 158.24 517.991 158.727 517.991 159.272C517.991 159.788 517.977 160.576 517.948 161.637C517.92 162.812 517.905 163.715 517.905 164.346C517.905 164.977 517.905 165.579 517.905 166.152C517.905 167.843 518.092 168.99 518.464 169.592C518.837 170.194 519.468 170.495 520.356 170.495ZM510.294 164.905L510.337 160.347L508.531 160.777C507.184 161.035 506.195 161.58 505.564 162.411C504.934 163.214 504.618 164.332 504.618 165.765C504.618 166.883 504.833 167.757 505.263 168.388C505.693 169.019 506.31 169.334 507.112 169.334C508.058 169.334 508.818 168.918 509.391 168.087C509.993 167.256 510.294 166.195 510.294 164.905ZM529.448 161.594C529.448 164.088 529.806 166.009 530.523 167.356C531.24 168.703 532.257 169.377 533.576 169.377C534.723 169.377 535.683 168.832 536.457 167.743C537.231 166.654 537.618 165.292 537.618 163.658V158.756C537.618 156.921 537.217 155.402 536.414 154.198C535.64 152.994 534.665 152.392 533.49 152.392C532.143 152.392 531.125 153.166 530.437 154.714C529.778 156.233 529.448 158.527 529.448 161.594ZM530.953 150.285C532.587 150.285 533.977 150.715 535.124 151.575C536.299 152.406 537.131 153.582 537.618 155.101V144.566C537.618 143.19 537.446 142.201 537.102 141.599C536.787 140.968 536.099 140.395 535.038 139.879V139.793H545.315V167.313C545.315 168.746 545.444 169.735 545.702 170.28C545.96 170.796 546.519 171.341 547.379 171.914V172H537.618V166.668C537.131 168.445 536.242 169.85 534.952 170.882C533.662 171.914 532.143 172.43 530.394 172.43C527.785 172.43 525.621 171.427 523.901 169.42C522.181 167.385 521.321 164.776 521.321 161.594C521.321 158.269 522.224 155.56 524.03 153.467C525.865 151.346 528.172 150.285 530.953 150.285ZM572.175 170.495C572.347 170.495 572.519 170.481 572.691 170.452C572.863 170.423 573.02 170.38 573.164 170.323V170.409C572.619 171.011 571.874 171.498 570.928 171.871C569.982 172.215 568.993 172.387 567.961 172.387C566.327 172.387 565.022 172.057 564.048 171.398C563.102 170.739 562.528 169.793 562.328 168.56C562.328 168.503 562.313 168.331 562.285 168.044C562.256 167.729 562.242 167.528 562.242 167.442C561.898 168.933 561.095 170.122 559.834 171.011C558.601 171.871 557.096 172.301 555.319 172.301C553.427 172.301 551.893 171.828 550.718 170.882C549.542 169.907 548.955 168.589 548.955 166.926C548.955 165.751 549.241 164.747 549.815 163.916C550.388 163.085 551.277 162.397 552.481 161.852C553.14 161.565 553.914 161.307 554.803 161.078C555.691 160.82 557.053 160.519 558.888 160.175L562.156 159.573V155.402C562.156 154.055 561.869 152.994 561.296 152.22C560.751 151.446 559.948 151.059 558.888 151.059C557.942 151.059 557.196 151.36 556.652 151.962C556.107 152.535 555.835 153.324 555.835 154.327C555.835 155.187 556.007 155.846 556.351 156.305C556.723 156.735 557.239 156.95 557.899 156.95C558.013 156.95 558.142 156.95 558.286 156.95C558.429 156.921 558.572 156.878 558.716 156.821C558.286 157.652 557.669 158.283 556.867 158.713C556.093 159.143 555.175 159.358 554.115 159.358C552.939 159.358 551.965 159.028 551.191 158.369C550.417 157.681 550.03 156.807 550.03 155.746C550.03 154.112 550.861 152.793 552.524 151.79C554.186 150.787 556.379 150.285 559.103 150.285C562.801 150.285 565.51 150.901 567.23 152.134C568.95 153.338 569.81 155.23 569.81 157.81C569.81 158.24 569.81 158.727 569.81 159.272C569.81 159.788 569.795 160.576 569.767 161.637C569.738 162.812 569.724 163.715 569.724 164.346C569.724 164.977 569.724 165.579 569.724 166.152C569.724 167.843 569.91 168.99 570.283 169.592C570.655 170.194 571.286 170.495 572.175 170.495ZM562.113 164.905L562.156 160.347L560.35 160.777C559.002 161.035 558.013 161.58 557.383 162.411C556.752 163.214 556.437 164.332 556.437 165.765C556.437 166.883 556.652 167.757 557.082 168.388C557.512 169.019 558.128 169.334 558.931 169.334C559.877 169.334 560.636 168.918 561.21 168.087C561.812 167.256 562.113 166.195 562.113 164.905ZM572.967 150.801V150.715H582.943V156.305C583.459 154.413 584.362 152.937 585.652 151.876C586.971 150.815 588.548 150.285 590.382 150.285C592.532 150.285 594.209 150.959 595.413 152.306C596.617 153.625 597.219 155.431 597.219 157.724V167.313C597.219 168.832 597.334 169.85 597.563 170.366C597.793 170.853 598.352 171.369 599.24 171.914V172H587.501V171.914C588.39 171.369 588.949 170.853 589.178 170.366C589.408 169.85 589.522 168.832 589.522 167.313V157.509C589.522 156.42 589.264 155.56 588.748 154.929C588.232 154.27 587.516 153.94 586.598 153.94C585.452 153.94 584.549 154.442 583.889 155.445C583.259 156.42 582.943 157.81 582.943 159.616V167.313C582.943 168.832 583.058 169.85 583.287 170.366C583.517 170.853 584.076 171.369 584.964 171.914V172H573.225V171.914C574.114 171.369 574.673 170.853 574.902 170.366C575.132 169.85 575.246 168.832 575.246 167.313V155.488C575.246 153.997 575.117 152.994 574.859 152.478C574.601 151.933 573.971 151.374 572.967 150.801ZM606.45 148.135C605.217 148.135 604.185 147.748 603.354 146.974C602.551 146.171 602.15 145.182 602.15 144.007C602.15 142.832 602.551 141.857 603.354 141.083C604.185 140.309 605.217 139.922 606.45 139.922C607.683 139.922 608.715 140.309 609.546 141.083C610.406 141.857 610.836 142.832 610.836 144.007C610.836 145.182 610.406 146.171 609.546 146.974C608.715 147.748 607.683 148.135 606.45 148.135ZM600.43 150.715H610.406V167.313C610.406 168.832 610.521 169.85 610.75 170.366C610.979 170.853 611.538 171.369 612.427 171.914V172H600.688V171.914C601.577 171.369 602.136 170.853 602.365 170.366C602.594 169.85 602.709 168.832 602.709 167.313V155.488C602.709 153.997 602.58 152.994 602.322 152.478C602.064 151.933 601.433 151.374 600.43 150.801V150.715ZM613.872 161.379C613.872 158.14 614.947 155.488 617.097 153.424C619.247 151.331 621.927 150.285 625.138 150.285C628.32 150.285 630.814 151.188 632.62 152.994C634.426 154.8 635.329 157.265 635.329 160.39H621.655C621.655 162.999 622.271 165.077 623.504 166.625C624.765 168.144 626.456 168.904 628.578 168.904C629.982 168.904 631.215 168.589 632.276 167.958C633.336 167.299 634.182 166.338 634.813 165.077L635.114 165.206C634.512 167.471 633.308 169.248 631.502 170.538C629.724 171.799 627.589 172.43 625.095 172.43C621.798 172.43 619.103 171.412 617.011 169.377C614.918 167.342 613.872 164.676 613.872 161.379ZM625.138 151.016C624.077 151.016 623.246 151.761 622.644 153.252C622.07 154.714 621.755 156.792 621.698 159.487H627.933C627.933 156.305 627.703 154.098 627.245 152.865C626.815 151.632 626.112 151.016 625.138 151.016ZM661.659 171.785V172H645.233V171.785C645.29 171.756 645.691 171.613 646.437 171.355C647.211 171.068 647.741 170.839 648.028 170.667C648.572 170.409 648.931 170.108 649.103 169.764C649.303 169.42 649.404 168.918 649.404 168.259V145.684C649.404 145.025 649.303 144.523 649.103 144.179C648.902 143.835 648.529 143.534 647.985 143.276C647.669 143.133 647.168 142.932 646.48 142.674C645.792 142.387 645.333 142.201 645.104 142.115V141.9H657.531V168.259C657.531 168.918 657.617 169.42 657.789 169.764C657.989 170.108 658.348 170.409 658.864 170.667C659.179 170.81 659.695 171.025 660.412 171.312C661.128 171.599 661.544 171.756 661.659 171.785ZM667.392 163.658C668.596 163.658 669.613 164.088 670.445 164.948C671.276 165.779 671.692 166.797 671.692 168.001C671.692 169.205 671.276 170.237 670.445 171.097C669.613 171.928 668.596 172.344 667.392 172.344C666.188 172.344 665.17 171.928 664.339 171.097C663.507 170.237 663.092 169.205 663.092 168.001C663.092 166.797 663.507 165.779 664.339 164.948C665.17 164.088 666.188 163.658 667.392 163.658ZM680.111 166.066C680.111 167.7 680.512 169.047 681.315 170.108C682.146 171.14 683.207 171.656 684.497 171.656C685.901 171.656 687.005 170.954 687.808 169.549C688.639 168.116 689.055 166.195 689.055 163.787C689.055 161.178 688.553 159.243 687.55 157.982C686.546 156.692 685.041 156.047 683.035 156.047V155.66C684.783 155.574 686.073 154.972 686.905 153.854C687.736 152.707 688.152 150.93 688.152 148.522C688.152 146.401 687.851 144.824 687.249 143.792C686.675 142.76 685.801 142.244 684.626 142.244C683.536 142.244 682.662 142.674 682.003 143.534C681.343 144.365 681.014 145.469 681.014 146.845C681.014 148.02 681.214 148.966 681.616 149.683C682.046 150.371 682.633 150.701 683.379 150.672C683.522 150.672 683.665 150.658 683.809 150.629C683.952 150.6 684.081 150.572 684.196 150.543H684.282C683.966 151.202 683.436 151.718 682.691 152.091C681.945 152.435 681.042 152.607 679.982 152.607C678.548 152.607 677.373 152.191 676.456 151.36C675.567 150.5 675.123 149.382 675.123 148.006C675.123 146.057 676.011 144.48 677.789 143.276C679.566 142.072 681.845 141.47 684.626 141.47C688.008 141.47 690.732 142.129 692.796 143.448C694.86 144.767 695.891 146.544 695.891 148.78C695.891 150.701 695.175 152.263 693.742 153.467C692.308 154.642 690.273 155.373 687.636 155.66C690.531 155.832 692.824 156.635 694.516 158.068C696.236 159.473 697.096 161.35 697.096 163.701C697.096 166.396 695.949 168.531 693.656 170.108C691.391 171.656 688.338 172.43 684.497 172.43C681.257 172.43 678.62 171.771 676.585 170.452C674.578 169.133 673.575 167.356 673.575 165.12C673.575 163.572 674.076 162.325 675.08 161.379C676.083 160.433 677.387 159.96 678.993 159.96C680.139 159.96 681.085 160.146 681.831 160.519C682.576 160.892 683.121 161.451 683.465 162.196H683.379C683.235 162.139 683.078 162.11 682.906 162.11C682.762 162.081 682.619 162.067 682.476 162.067C681.73 162.038 681.143 162.382 680.713 163.099C680.311 163.816 680.111 164.805 680.111 166.066Z" fill="white"/>
<rect x="136" y="210" width="28" height="28" fill="#FF0644"/>
<rect opacity="0.3" x="178" y="210" width="28" height="28" fill="#FF0644"/>
<rect opacity="0.3" x="220" y="210" width="28" height="28" fill="#FF0644"/>
<path d="M563.525 565.776C563.525 567.496 563.897 568.858 564.643 569.861C565.388 570.836 566.563 571.323 568.169 571.323C569.287 571.323 570.276 571.051 571.136 570.506C572.024 569.961 572.712 569.23 573.2 568.313C573.716 567.396 573.974 566.378 573.974 565.26V553.22H576.21V573H573.974V568.872C573.429 570.305 572.612 571.423 571.523 572.226C570.433 573.029 569.143 573.43 567.653 573.43C565.589 573.43 564.012 572.771 562.923 571.452C561.833 570.105 561.289 568.299 561.289 566.034V553.22H563.525V565.776Z" fill="white"/>
<path d="M591.463 678.026C588.023 669.923 591.391 528.638 593.504 459.008M593.504 459.008L575.463 475.631M593.504 459.008L608.546 474.737" stroke="white" stroke-width="2"/>
<path d="M556 538H580M580 538L575.034 532M580 538L575.034 544" stroke="white"/>
<path d="M591.728 679.369L285.153 781.947M285.153 781.947L323.505 794.043M285.153 781.947L307.85 747.257" stroke="white" stroke-width="2"/>
<path d="M447.168 696.327H434.741V694.22H451.253L437.708 711.893H450.909V714H433.623L447.168 696.327Z" fill="white"/>
<path d="M431 679H455M455 679L450.034 673M455 679L450.034 685" stroke="white"/>
<path d="M596 678C596 680.761 593.761 683 591 683C588.239 683 586 680.761 586 678C586 675.239 588.239 673 591 673C593.761 673 596 675.239 596 678Z" fill="white"/>
<path d="M144.815 959.165H148.9L159.65 974H155.135L144.815 959.165ZM139.44 943.9H143.095V974H139.44V943.9ZM141.461 947.125V943.9H147.61C149.559 943.9 151.294 944.273 152.813 945.018C154.361 945.735 155.579 946.767 156.468 948.114C157.385 949.461 157.844 951.067 157.844 952.93C157.844 954.765 157.385 956.37 156.468 957.746C155.579 959.093 154.361 960.14 152.813 960.885C151.294 961.602 149.559 961.96 147.61 961.96H141.461V958.735H147.61C148.9 958.735 150.032 958.506 151.007 958.047C152.01 957.588 152.784 956.929 153.329 956.069C153.902 955.209 154.189 954.163 154.189 952.93C154.189 951.697 153.902 950.651 153.329 949.791C152.784 948.931 152.01 948.272 151.007 947.813C150.032 947.354 148.9 947.125 147.61 947.125H141.461ZM161.567 964.11C161.567 962.103 162.011 960.326 162.9 958.778C163.817 957.23 165.05 956.012 166.598 955.123C168.146 954.234 169.88 953.79 171.801 953.79C173.75 953.79 175.484 954.234 177.004 955.123C178.552 956.012 179.77 957.23 180.659 958.778C181.576 960.326 182.035 962.103 182.035 964.11C182.035 966.088 181.576 967.865 180.659 969.442C179.77 970.99 178.552 972.208 177.004 973.097C175.484 973.986 173.75 974.43 171.801 974.43C169.88 974.43 168.146 973.986 166.598 973.097C165.05 972.208 163.817 970.99 162.9 969.442C162.011 967.865 161.567 966.088 161.567 964.11ZM165.05 964.11C165.05 965.486 165.336 966.704 165.91 967.765C166.512 968.826 167.314 969.671 168.318 970.302C169.35 970.904 170.511 971.205 171.801 971.205C173.091 971.205 174.237 970.904 175.241 970.302C176.273 969.671 177.075 968.826 177.649 967.765C178.251 966.704 178.552 965.486 178.552 964.11C178.552 962.734 178.251 961.516 177.649 960.455C177.075 959.366 176.273 958.52 175.241 957.918C174.237 957.316 173.091 957.015 171.801 957.015C170.511 957.015 169.35 957.316 168.318 957.918C167.314 958.52 166.512 959.366 165.91 960.455C165.336 961.516 165.05 962.734 165.05 964.11ZM195.805 957.445H184.84V954.22H202.04L189.785 970.775H201.18V974H183.55L195.805 957.445ZM203.528 954.22H207.398L212.343 967.077L217.718 952.715L223.48 967.163L228.468 954.22H232.338L223.738 975.505L217.761 961.1L212.128 975.505L203.528 954.22ZM235.765 946.05C235.765 945.391 235.994 944.832 236.453 944.373C236.94 943.914 237.499 943.685 238.13 943.685C238.789 943.685 239.348 943.914 239.807 944.373C240.266 944.832 240.495 945.391 240.495 946.05C240.495 946.681 240.266 947.24 239.807 947.727C239.348 948.186 238.789 948.415 238.13 948.415C237.499 948.415 236.94 948.186 236.453 947.727C235.994 947.24 235.765 946.681 235.765 946.05ZM236.41 954.22H239.85V974H236.41V954.22ZM248.483 968.195C248.483 968.883 248.669 969.471 249.042 969.958C249.415 970.417 249.916 970.775 250.547 971.033C251.178 971.262 251.88 971.377 252.654 971.377C253.801 971.377 254.818 971.205 255.707 970.861C256.596 970.517 257.284 969.972 257.771 969.227C258.287 968.482 258.545 967.493 258.545 966.26L259.233 968.41C259.233 969.671 258.889 970.761 258.201 971.678C257.542 972.567 256.653 973.255 255.535 973.742C254.417 974.201 253.17 974.43 251.794 974.43C250.561 974.43 249.429 974.201 248.397 973.742C247.365 973.283 246.534 972.61 245.903 971.721C245.301 970.804 245 969.671 245 968.324C245 966.919 245.344 965.73 246.032 964.755C246.72 963.78 247.695 963.035 248.956 962.519C250.217 961.974 251.708 961.702 253.428 961.702C254.689 961.702 255.764 961.874 256.653 962.218C257.57 962.533 258.301 962.906 258.846 963.336C259.391 963.737 259.763 964.067 259.964 964.325V966.346C258.989 965.658 258 965.156 256.997 964.841C255.994 964.497 254.861 964.325 253.6 964.325C252.453 964.325 251.493 964.483 250.719 964.798C249.974 965.113 249.415 965.558 249.042 966.131C248.669 966.704 248.483 967.392 248.483 968.195ZM248.483 958.864L246.806 956.241C247.551 955.696 248.555 955.152 249.816 954.607C251.077 954.062 252.597 953.79 254.374 953.79C255.893 953.79 257.212 954.034 258.33 954.521C259.477 954.98 260.365 955.653 260.996 956.542C261.655 957.431 261.985 958.52 261.985 959.81V974H258.545V959.81C258.545 958.807 258.115 958.061 257.255 957.574C256.424 957.058 255.463 956.8 254.374 956.8C253.428 956.8 252.568 956.929 251.794 957.187C251.02 957.416 250.346 957.703 249.773 958.047C249.228 958.362 248.798 958.635 248.483 958.864ZM262.2 979.59L263.619 981.74C263.304 982.17 262.816 982.557 262.157 982.901C261.526 983.274 260.752 983.46 259.835 983.46C258.631 983.46 257.642 983.274 256.868 982.901C256.094 982.557 255.506 982.055 255.105 981.396C254.732 980.737 254.546 979.991 254.546 979.16C254.546 978.3 254.804 977.497 255.32 976.752C255.865 976.007 256.567 975.304 257.427 974.645C258.287 974.014 259.219 973.441 260.222 972.925L261.985 974C261.24 974.315 260.566 974.702 259.964 975.161C259.362 975.648 258.875 976.15 258.502 976.666C258.158 977.211 257.986 977.755 257.986 978.3C257.986 979.074 258.172 979.619 258.545 979.934C258.918 980.278 259.419 980.45 260.05 980.45C260.623 980.45 261.053 980.378 261.34 980.235C261.627 980.092 261.913 979.877 262.2 979.59ZM277.48 957.445H266.515V954.22H283.715L271.46 970.775H282.855V974H265.225L277.48 957.445ZM289.131 967.894C289.131 968.639 289.303 969.284 289.647 969.829C290.02 970.374 290.522 970.789 291.152 971.076C291.812 971.334 292.557 971.463 293.388 971.463C294.449 971.463 295.395 971.248 296.226 970.818C297.086 970.388 297.76 969.786 298.247 969.012C298.763 968.209 299.021 967.292 299.021 966.26L299.709 968.84C299.709 970.101 299.322 971.148 298.548 971.979C297.803 972.81 296.871 973.427 295.753 973.828C294.664 974.229 293.575 974.43 292.485 974.43C291.281 974.43 290.149 974.186 289.088 973.699C288.056 973.183 287.225 972.452 286.594 971.506C285.964 970.56 285.648 969.413 285.648 968.066C285.648 966.145 286.322 964.612 287.669 963.465C289.045 962.29 290.952 961.702 293.388 961.702C294.822 961.702 296.011 961.874 296.957 962.218C297.932 962.533 298.706 962.906 299.279 963.336C299.853 963.737 300.24 964.067 300.44 964.325V966.346C299.437 965.658 298.405 965.171 297.344 964.884C296.284 964.569 295.151 964.411 293.947 964.411C292.829 964.411 291.912 964.554 291.195 964.841C290.507 965.128 289.991 965.529 289.647 966.045C289.303 966.561 289.131 967.177 289.131 967.894ZM288.615 958.778L286.938 956.241C287.684 955.696 288.701 955.152 289.991 954.607C291.31 954.062 292.887 953.79 294.721 953.79C296.269 953.79 297.617 954.034 298.763 954.521C299.939 954.98 300.842 955.653 301.472 956.542C302.132 957.431 302.461 958.52 302.461 959.81V974H299.021V960.283C299.021 959.595 298.907 959.036 298.677 958.606C298.448 958.147 298.118 957.789 297.688 957.531C297.287 957.273 296.814 957.087 296.269 956.972C295.725 956.857 295.151 956.8 294.549 956.8C293.575 956.8 292.686 956.915 291.883 957.144C291.109 957.373 290.45 957.646 289.905 957.961C289.361 958.276 288.931 958.549 288.615 958.778ZM320.971 961.96C320.971 960.326 320.612 959.093 319.896 958.262C319.179 957.431 318.133 957.015 316.757 957.015C315.753 957.015 314.865 957.23 314.091 957.66C313.345 958.061 312.758 958.635 312.328 959.38C311.926 960.125 311.726 960.985 311.726 961.96V974H308.286V954.22H311.726V957.316C312.385 956.112 313.202 955.223 314.177 954.65C315.18 954.077 316.327 953.79 317.617 953.79C319.709 953.79 321.358 954.492 322.562 955.897C323.794 957.273 324.411 959.151 324.411 961.53V974H320.971V961.96ZM330.877 946.05C330.877 945.391 331.107 944.832 331.565 944.373C332.053 943.914 332.612 943.685 333.242 943.685C333.902 943.685 334.461 943.914 334.919 944.373C335.378 944.832 335.607 945.391 335.607 946.05C335.607 946.681 335.378 947.24 334.919 947.727C334.461 948.186 333.902 948.415 333.242 948.415C332.612 948.415 332.053 948.186 331.565 947.727C331.107 947.24 330.877 946.681 330.877 946.05ZM331.522 954.22H334.962V974H331.522V954.22ZM349.701 974.43C347.867 974.43 346.233 974 344.799 973.14C343.395 972.251 342.291 971.033 341.488 969.485C340.714 967.937 340.327 966.145 340.327 964.11C340.327 962.046 340.729 960.24 341.531 958.692C342.363 957.144 343.509 955.94 344.971 955.08C346.462 954.22 348.182 953.79 350.131 953.79C352.081 953.79 353.743 954.206 355.119 955.037C356.524 955.84 357.599 957.001 358.344 958.52C359.09 960.039 359.462 961.845 359.462 963.938C359.462 964.139 359.448 964.354 359.419 964.583C359.419 964.784 359.419 964.913 359.419 964.97H342.52V962.046H356.71L355.334 964.024C355.42 963.881 355.506 963.666 355.592 963.379C355.678 963.064 355.721 962.806 355.721 962.605C355.721 961.43 355.478 960.412 354.99 959.552C354.532 958.692 353.887 958.018 353.055 957.531C352.224 957.044 351.249 956.8 350.131 956.8C348.813 956.8 347.68 957.087 346.734 957.66C345.817 958.205 345.1 959.007 344.584 960.068C344.097 961.1 343.839 962.376 343.81 963.895C343.81 965.443 344.054 966.762 344.541 967.851C345.029 968.94 345.745 969.772 346.691 970.345C347.637 970.918 348.784 971.205 350.131 971.205C351.479 971.205 352.668 970.918 353.7 970.345C354.732 969.743 355.607 968.84 356.323 967.636L359.118 969.399C358.086 971.062 356.782 972.323 355.205 973.183C353.657 974.014 351.823 974.43 349.701 974.43ZM365.037 972.28C365.037 971.621 365.266 971.062 365.725 970.603C366.212 970.144 366.771 969.915 367.402 969.915C368.061 969.915 368.62 970.144 369.079 970.603C369.538 971.062 369.767 971.621 369.767 972.28C369.767 972.911 369.538 973.47 369.079 973.957C368.62 974.416 368.061 974.645 367.402 974.645C366.771 974.645 366.212 974.416 365.725 973.957C365.266 973.47 365.037 972.911 365.037 972.28ZM365.037 955.94C365.037 955.281 365.266 954.722 365.725 954.263C366.212 953.804 366.771 953.575 367.402 953.575C368.061 953.575 368.62 953.804 369.079 954.263C369.538 954.722 369.767 955.281 369.767 955.94C369.767 956.571 369.538 957.13 369.079 957.617C368.62 958.076 368.061 958.305 367.402 958.305C366.771 958.305 366.212 958.076 365.725 957.617C365.266 957.13 365.037 956.571 365.037 955.94Z" fill="white"/>
<path d="M141.741 1108.07C141.741 1109.04 141.956 1109.86 142.386 1110.52C142.845 1111.18 143.447 1111.68 144.192 1112.02C144.966 1112.34 145.812 1112.49 146.729 1112.49C147.847 1112.49 148.865 1112.24 149.782 1111.72C150.728 1111.2 151.488 1110.45 152.061 1109.44C152.634 1108.44 152.921 1107.21 152.921 1105.74L153.437 1107.64C153.437 1109.18 153.064 1110.46 152.319 1111.46C151.574 1112.47 150.642 1113.21 149.524 1113.7C148.406 1114.19 147.274 1114.43 146.127 1114.43C145.009 1114.43 143.934 1114.2 142.902 1113.74C141.87 1113.25 141.039 1112.55 140.408 1111.63C139.777 1110.72 139.462 1109.56 139.462 1108.15C139.462 1106.23 140.121 1104.71 141.44 1103.59C142.787 1102.48 144.608 1101.92 146.901 1101.92C148.191 1101.92 149.295 1102.07 150.212 1102.39C151.158 1102.68 151.932 1103.01 152.534 1103.38C153.136 1103.75 153.566 1104.07 153.824 1104.32V1105.74C152.849 1105.06 151.803 1104.55 150.685 1104.24C149.596 1103.89 148.449 1103.72 147.245 1103.72C146.127 1103.72 145.152 1103.88 144.321 1104.2C143.518 1104.51 142.888 1104.98 142.429 1105.61C141.97 1106.25 141.741 1107.06 141.741 1108.07ZM141.827 1097.83L140.709 1096.15C141.454 1095.64 142.415 1095.12 143.59 1094.61C144.794 1094.06 146.27 1093.79 148.019 1093.79C149.51 1093.79 150.785 1094.03 151.846 1094.52C152.907 1095.01 153.724 1095.71 154.297 1096.63C154.87 1097.55 155.157 1098.66 155.157 1099.98V1114H152.921V1100.28C152.921 1099.71 152.835 1099.16 152.663 1098.65C152.491 1098.1 152.204 1097.62 151.803 1097.19C151.43 1096.76 150.914 1096.41 150.255 1096.15C149.596 1095.9 148.793 1095.77 147.847 1095.77C146.872 1095.77 145.998 1095.88 145.224 1096.11C144.45 1096.34 143.776 1096.61 143.203 1096.93C142.658 1097.24 142.2 1097.55 141.827 1097.83ZM161.215 1122.6H159.194C160.742 1119.27 161.875 1115.85 162.591 1112.32C163.308 1108.77 163.666 1105.17 163.666 1101.53C163.666 1097.86 163.308 1094.26 162.591 1090.74C161.875 1087.18 160.742 1083.76 159.194 1080.46H161.215C162.935 1083.67 164.182 1087.07 164.956 1090.65C165.759 1094.23 166.16 1097.86 166.16 1101.53C166.16 1105.17 165.759 1108.78 164.956 1112.37C164.182 1115.95 162.935 1119.36 161.215 1122.6ZM188.565 1106.78C188.565 1108.5 188.937 1109.86 189.683 1110.86C190.428 1111.84 191.603 1112.32 193.209 1112.32C194.327 1112.32 195.316 1112.05 196.176 1111.51C197.064 1110.96 197.752 1110.23 198.24 1109.31C198.756 1108.4 199.014 1107.38 199.014 1106.26V1094.22H201.25V1114H199.014V1109.87C198.469 1111.31 197.652 1112.42 196.563 1113.23C195.473 1114.03 194.183 1114.43 192.693 1114.43C190.629 1114.43 189.052 1113.77 187.963 1112.45C186.873 1111.1 186.329 1109.3 186.329 1107.03V1094.22H188.565V1106.78ZM217.748 1104.28V1102.17H226.348V1104.28H217.748ZM253.729 1096.33H241.302V1094.22H257.814L244.269 1111.89H257.47V1114H240.184L253.729 1096.33ZM304.411 1090.18L301.831 1114H299.466L302.949 1082.74L314.989 1105.87L327.029 1082.74L330.512 1114H328.147L325.567 1090.18L314.989 1110.52L304.411 1090.18ZM337.451 1114V1111.76H352.372V1114H337.451ZM337.451 1086.14V1083.9H352.372V1086.14H337.451ZM337.451 1098.61V1096.37H351.512V1098.61H337.451ZM336.204 1083.9H338.569V1114H336.204V1083.9ZM356.164 1086.14V1083.9H374.353V1086.14H366.441V1114H364.076V1086.14H356.164ZM377.206 1098.95C377.206 1101.44 377.737 1103.68 378.797 1105.66C379.887 1107.64 381.363 1109.2 383.226 1110.34C385.118 1111.46 387.268 1112.02 389.676 1112.02C392.084 1112.02 394.22 1111.46 396.083 1110.34C397.975 1109.2 399.452 1107.64 400.512 1105.66C401.573 1103.68 402.103 1101.44 402.103 1098.95C402.103 1096.43 401.573 1094.19 400.512 1092.24C399.452 1090.26 397.975 1088.72 396.083 1087.6C394.22 1086.45 392.084 1085.88 389.676 1085.88C387.268 1085.88 385.118 1086.45 383.226 1087.6C381.363 1088.72 379.887 1090.26 378.797 1092.24C377.737 1094.19 377.206 1096.43 377.206 1098.95ZM374.712 1098.95C374.712 1096.74 375.085 1094.71 375.83 1092.84C376.576 1090.95 377.622 1089.32 378.969 1087.94C380.317 1086.54 381.893 1085.45 383.699 1084.67C385.534 1083.9 387.526 1083.51 389.676 1083.51C391.826 1083.51 393.804 1083.9 395.61 1084.67C397.445 1085.45 399.036 1086.54 400.383 1087.94C401.731 1089.32 402.777 1090.95 403.522 1092.84C404.268 1094.71 404.64 1096.74 404.64 1098.95C404.64 1101.16 404.268 1103.21 403.522 1105.1C402.777 1106.96 401.731 1108.6 400.383 1110C399.036 1111.38 397.445 1112.45 395.61 1113.23C393.804 1114 391.826 1114.39 389.676 1114.39C387.526 1114.39 385.534 1114 383.699 1113.23C381.893 1112.45 380.317 1111.38 378.969 1110C377.622 1108.6 376.576 1106.96 375.83 1105.1C375.085 1103.21 374.712 1101.16 374.712 1098.95ZM410.152 1083.9H412.517V1114H410.152V1083.9ZM418.322 1114H411.442V1111.63H418.322C420.185 1111.63 421.877 1111.33 423.396 1110.73C424.944 1110.13 426.263 1109.28 427.352 1108.19C428.441 1107.08 429.273 1105.74 429.846 1104.2C430.448 1102.62 430.749 1100.87 430.749 1098.95C430.749 1097.03 430.448 1095.29 429.846 1093.75C429.273 1092.17 428.441 1090.84 427.352 1089.75C426.263 1088.63 424.944 1087.77 423.396 1087.17C421.877 1086.57 420.185 1086.26 418.322 1086.26H411.442V1083.9H418.322C421.246 1083.9 423.812 1084.53 426.019 1085.79C428.255 1087.05 429.989 1088.82 431.222 1091.08C432.483 1093.32 433.114 1095.94 433.114 1098.95C433.114 1101.96 432.483 1104.6 431.222 1106.86C429.989 1109.1 428.255 1110.85 426.019 1112.11C423.812 1113.37 421.246 1114 418.322 1114ZM439.729 1103.89L440.503 1101.66H454.392L455.166 1103.89H439.729ZM447.383 1088.2L441.535 1102.43L441.277 1102.95L436.762 1114H434.096L447.383 1082.74L460.67 1114H458.004L453.532 1103.12L453.317 1102.56L447.383 1088.2ZM474.54 1086.14V1083.9H492.729V1086.14H484.817V1114H482.452V1086.14H474.54ZM502.067 1099.64H504.69L514.967 1114H512.043L502.067 1099.64ZM496.95 1083.9H499.315V1114H496.95V1083.9ZM498.197 1086.01V1083.9H503.83C505.779 1083.9 507.514 1084.24 509.033 1084.93C510.581 1085.62 511.799 1086.61 512.688 1087.9C513.577 1089.19 514.021 1090.77 514.021 1092.63C514.021 1094.46 513.577 1096.04 512.688 1097.36C511.799 1098.68 510.581 1099.68 509.033 1100.37C507.514 1101.03 505.779 1101.36 503.83 1101.36H498.197V1099.25H503.83C505.349 1099.25 506.697 1099.01 507.872 1098.52C509.076 1098 510.008 1097.26 510.667 1096.28C511.326 1095.28 511.656 1094.06 511.656 1092.63C511.656 1091.2 511.312 1089.99 510.624 1089.02C509.965 1088.04 509.047 1087.3 507.872 1086.78C506.697 1086.26 505.349 1086.01 503.83 1086.01H498.197ZM520.232 1098.95C520.232 1101.44 520.762 1103.68 521.823 1105.66C522.912 1107.64 524.388 1109.2 526.252 1110.34C528.144 1111.46 530.294 1112.02 532.702 1112.02C535.11 1112.02 537.245 1111.46 539.109 1110.34C541.001 1109.2 542.477 1107.64 543.538 1105.66C544.598 1103.68 545.129 1101.44 545.129 1098.95C545.129 1096.43 544.598 1094.19 543.538 1092.24C542.477 1090.26 541.001 1088.72 539.109 1087.6C537.245 1086.45 535.11 1085.88 532.702 1085.88C530.294 1085.88 528.144 1086.45 526.252 1087.6C524.388 1088.72 522.912 1090.26 521.823 1092.24C520.762 1094.19 520.232 1096.43 520.232 1098.95ZM517.738 1098.95C517.738 1096.74 518.11 1094.71 518.856 1092.84C519.601 1090.95 520.647 1089.32 521.995 1087.94C523.342 1086.54 524.919 1085.45 526.725 1084.67C528.559 1083.9 530.552 1083.51 532.702 1083.51C534.852 1083.51 536.83 1083.9 538.636 1084.67C540.47 1085.45 542.061 1086.54 543.409 1087.94C544.756 1089.32 545.802 1090.95 546.548 1092.84C547.293 1094.71 547.666 1096.74 547.666 1098.95C547.666 1101.16 547.293 1103.21 546.548 1105.1C545.802 1106.96 544.756 1108.6 543.409 1110C542.061 1111.38 540.47 1112.45 538.636 1113.23C536.83 1114 534.852 1114.39 532.702 1114.39C530.552 1114.39 528.559 1114 526.725 1113.23C524.919 1112.45 523.342 1111.38 521.995 1110C520.647 1108.6 519.601 1106.96 518.856 1105.1C518.11 1103.21 517.738 1101.16 517.738 1098.95ZM538.12 1074.35L530.509 1080.93L529.262 1080.07L536.056 1073.19L538.12 1074.35ZM545.652 1119.42C546.054 1119.91 546.598 1120.32 547.286 1120.67C547.974 1121.04 548.734 1121.22 549.565 1121.22C550.741 1121.22 551.644 1120.84 552.274 1120.06C552.934 1119.29 553.263 1117.98 553.263 1116.15V1083.9H555.542V1116.58C555.542 1117.76 555.413 1118.77 555.155 1119.63C554.897 1120.49 554.51 1121.21 553.994 1121.78C553.507 1122.36 552.876 1122.77 552.102 1123.03C551.357 1123.32 550.483 1123.46 549.479 1123.46C548.734 1123.46 548.017 1123.33 547.329 1123.07C546.613 1122.82 546.011 1122.51 545.523 1122.17C545.007 1121.83 544.635 1121.51 544.405 1121.22L545.652 1119.42ZM562.666 1083.9H565.031V1114H562.666V1083.9ZM577.501 1083.9H580.511L567.267 1098L581.156 1114H578.146L564.343 1098.05L577.501 1083.9ZM587.583 1103.89L588.357 1101.66H602.246L603.02 1103.89H587.583ZM595.237 1088.2L589.389 1102.43L589.131 1102.95L584.616 1114H581.95L595.237 1082.74L608.524 1114H605.858L601.386 1103.12L601.171 1102.56L595.237 1088.2ZM609.255 1120.32L610.201 1121.74C609.886 1122.17 609.37 1122.56 608.653 1122.9C607.965 1123.27 607.163 1123.46 606.245 1123.46C605.156 1123.46 604.239 1123.29 603.493 1122.94C602.777 1122.63 602.232 1122.17 601.859 1121.57C601.487 1120.97 601.3 1120.28 601.3 1119.5C601.3 1118.59 601.587 1117.74 602.16 1116.97C602.762 1116.22 603.522 1115.53 604.439 1114.9C605.385 1114.27 606.36 1113.7 607.363 1113.18L608.524 1114C607.693 1114.37 606.89 1114.82 606.116 1115.33C605.371 1115.88 604.755 1116.45 604.267 1117.05C603.78 1117.68 603.536 1118.33 603.536 1118.99C603.536 1119.85 603.809 1120.48 604.353 1120.88C604.898 1121.28 605.572 1121.48 606.374 1121.48C607.062 1121.48 607.636 1121.37 608.094 1121.14C608.553 1120.91 608.94 1120.64 609.255 1120.32ZM606.479 1086.14V1083.9H624.668V1086.14H616.756V1114H614.391V1086.14H606.479ZM627.014 1103.89L627.788 1101.66H641.677L642.451 1103.89H627.014ZM634.668 1088.2L628.82 1102.43L628.562 1102.95L624.047 1114H621.381L634.668 1082.74L647.955 1114H645.289L640.817 1103.12L640.602 1102.56L634.668 1088.2Z" fill="white"/>
<path d="M367.525 1484.78C367.525 1486.5 367.897 1487.86 368.643 1488.86C369.388 1489.84 370.563 1490.32 372.169 1490.32C373.287 1490.32 374.276 1490.05 375.136 1489.51C376.024 1488.96 376.712 1488.23 377.2 1487.31C377.716 1486.4 377.974 1485.38 377.974 1484.26V1472.22H380.21V1492H377.974V1487.87C377.429 1489.31 376.612 1490.42 375.523 1491.23C374.433 1492.03 373.143 1492.43 371.653 1492.43C369.589 1492.43 368.012 1491.77 366.923 1490.45C365.833 1489.1 365.289 1487.3 365.289 1485.03V1472.22H367.525V1484.78Z" fill="white"/>
<path d="M395.463 1597.03C392.023 1588.92 395.391 1447.64 397.504 1378.01M397.504 1378.01L379.463 1394.63M397.504 1378.01L412.546 1393.74" stroke="white" stroke-width="2"/>
<path d="M391.501 1380L698.076 1277.42M698.076 1277.42L659.725 1265.32M698.076 1277.42L675.379 1312.11" stroke="white" stroke-width="2"/>
<path d="M396.111 1598.54L698 1279M698 1279L656.46 1285.9M698 1279L692.019 1324.14" stroke="#FF0644" stroke-width="4"/>
<path d="M267 1101H291M291 1101L286.034 1095M291 1101L286.034 1107" stroke="white"/>
<path d="M555 1463H579M579 1463L574.034 1457M579 1463L574.034 1469" stroke="#FF0644"/>
<path d="M360 1457H384M384 1457L379.034 1451M384 1457L379.034 1463" stroke="white"/>
<path d="M476.107 1310.28V1308.17H484.707V1310.28H476.107ZM512.088 1302.33H499.661V1300.22H516.173L502.628 1317.89H515.829V1320H498.543L512.088 1302.33Z" fill="white"/>
<path d="M494 1285H518M518 1285L513.034 1279M518 1285L513.034 1291" stroke="white"/>
<path d="M560.633 1472.22V1492H558.397V1472.22H560.633ZM567.212 1474.84C566.782 1474.53 566.366 1474.3 565.965 1474.15C565.592 1473.98 565.148 1473.9 564.632 1473.9C563.657 1473.9 562.869 1474.17 562.267 1474.71C561.694 1475.26 561.278 1475.99 561.02 1476.91C560.762 1477.82 560.633 1478.84 560.633 1479.96H559.601C559.601 1478.38 559.845 1476.99 560.332 1475.79C560.819 1474.56 561.479 1473.58 562.31 1472.86C563.17 1472.15 564.116 1471.79 565.148 1471.79C565.779 1471.79 566.366 1471.89 566.911 1472.09C567.484 1472.26 568 1472.56 568.459 1472.99L567.212 1474.84Z" fill="#FF0644"/>
<path d="M141.815 1765.16H145.9L156.65 1780H152.135L141.815 1765.16ZM136.44 1749.9H140.095V1780H136.44V1749.9ZM138.461 1753.12V1749.9H144.61C146.559 1749.9 148.294 1750.27 149.813 1751.02C151.361 1751.73 152.579 1752.77 153.468 1754.11C154.385 1755.46 154.844 1757.07 154.844 1758.93C154.844 1760.76 154.385 1762.37 153.468 1763.75C152.579 1765.09 151.361 1766.14 149.813 1766.88C148.294 1767.6 146.559 1767.96 144.61 1767.96H138.461V1764.73H144.61C145.9 1764.73 147.032 1764.51 148.007 1764.05C149.01 1763.59 149.784 1762.93 150.329 1762.07C150.902 1761.21 151.189 1760.16 151.189 1758.93C151.189 1757.7 150.902 1756.65 150.329 1755.79C149.784 1754.93 149.01 1754.27 148.007 1753.81C147.032 1753.35 145.9 1753.12 144.61 1753.12H138.461ZM158.567 1770.11C158.567 1768.1 159.011 1766.33 159.9 1764.78C160.817 1763.23 162.05 1762.01 163.598 1761.12C165.146 1760.23 166.88 1759.79 168.801 1759.79C170.75 1759.79 172.484 1760.23 174.004 1761.12C175.552 1762.01 176.77 1763.23 177.659 1764.78C178.576 1766.33 179.035 1768.1 179.035 1770.11C179.035 1772.09 178.576 1773.87 177.659 1775.44C176.77 1776.99 175.552 1778.21 174.004 1779.1C172.484 1779.99 170.75 1780.43 168.801 1780.43C166.88 1780.43 165.146 1779.99 163.598 1779.1C162.05 1778.21 160.817 1776.99 159.9 1775.44C159.011 1773.87 158.567 1772.09 158.567 1770.11ZM162.05 1770.11C162.05 1771.49 162.336 1772.7 162.91 1773.76C163.512 1774.83 164.314 1775.67 165.318 1776.3C166.35 1776.9 167.511 1777.2 168.801 1777.2C170.091 1777.2 171.237 1776.9 172.241 1776.3C173.273 1775.67 174.075 1774.83 174.649 1773.76C175.251 1772.7 175.552 1771.49 175.552 1770.11C175.552 1768.73 175.251 1767.52 174.649 1766.45C174.075 1765.37 173.273 1764.52 172.241 1763.92C171.237 1763.32 170.091 1763.01 168.801 1763.01C167.511 1763.01 166.35 1763.32 165.318 1763.92C164.314 1764.52 163.512 1765.37 162.91 1766.45C162.336 1767.52 162.05 1768.73 162.05 1770.11ZM192.805 1763.44H181.84V1760.22H199.04L186.785 1776.77H198.18V1780H180.55L192.805 1763.44ZM200.528 1760.22H204.398L209.343 1773.08L214.718 1758.71L220.48 1773.16L225.468 1760.22H229.338L220.738 1781.51L214.761 1767.1L209.128 1781.51L200.528 1760.22ZM232.765 1752.05C232.765 1751.39 232.994 1750.83 233.453 1750.37C233.94 1749.91 234.499 1749.68 235.13 1749.68C235.789 1749.68 236.348 1749.91 236.807 1750.37C237.266 1750.83 237.495 1751.39 237.495 1752.05C237.495 1752.68 237.266 1753.24 236.807 1753.73C236.348 1754.19 235.789 1754.41 235.13 1754.41C234.499 1754.41 233.94 1754.19 233.453 1753.73C232.994 1753.24 232.765 1752.68 232.765 1752.05ZM233.41 1760.22H236.85V1780H233.41V1760.22ZM245.483 1774.19C245.483 1774.88 245.669 1775.47 246.042 1775.96C246.415 1776.42 246.916 1776.77 247.547 1777.03C248.178 1777.26 248.88 1777.38 249.654 1777.38C250.801 1777.38 251.818 1777.2 252.707 1776.86C253.596 1776.52 254.284 1775.97 254.771 1775.23C255.287 1774.48 255.545 1773.49 255.545 1772.26L256.233 1774.41C256.233 1775.67 255.889 1776.76 255.201 1777.68C254.542 1778.57 253.653 1779.25 252.535 1779.74C251.417 1780.2 250.17 1780.43 248.794 1780.43C247.561 1780.43 246.429 1780.2 245.397 1779.74C244.365 1779.28 243.534 1778.61 242.903 1777.72C242.301 1776.8 242 1775.67 242 1774.32C242 1772.92 242.344 1771.73 243.032 1770.75C243.72 1769.78 244.695 1769.03 245.956 1768.52C247.217 1767.97 248.708 1767.7 250.428 1767.7C251.689 1767.7 252.764 1767.87 253.653 1768.22C254.57 1768.53 255.301 1768.91 255.846 1769.34C256.391 1769.74 256.763 1770.07 256.964 1770.32V1772.35C255.989 1771.66 255 1771.16 253.997 1770.84C252.994 1770.5 251.861 1770.32 250.6 1770.32C249.453 1770.32 248.493 1770.48 247.719 1770.8C246.974 1771.11 246.415 1771.56 246.042 1772.13C245.669 1772.7 245.483 1773.39 245.483 1774.19ZM245.483 1764.86L243.806 1762.24C244.551 1761.7 245.555 1761.15 246.816 1760.61C248.077 1760.06 249.597 1759.79 251.374 1759.79C252.893 1759.79 254.212 1760.03 255.33 1760.52C256.477 1760.98 257.365 1761.65 257.996 1762.54C258.655 1763.43 258.985 1764.52 258.985 1765.81V1780H255.545V1765.81C255.545 1764.81 255.115 1764.06 254.255 1763.57C253.424 1763.06 252.463 1762.8 251.374 1762.8C250.428 1762.8 249.568 1762.93 248.794 1763.19C248.02 1763.42 247.346 1763.7 246.773 1764.05C246.228 1764.36 245.798 1764.63 245.483 1764.86ZM259.2 1785.59L260.619 1787.74C260.304 1788.17 259.816 1788.56 259.157 1788.9C258.526 1789.27 257.752 1789.46 256.835 1789.46C255.631 1789.46 254.642 1789.27 253.868 1788.9C253.094 1788.56 252.506 1788.06 252.105 1787.4C251.732 1786.74 251.546 1785.99 251.546 1785.16C251.546 1784.3 251.804 1783.5 252.32 1782.75C252.865 1782.01 253.567 1781.3 254.427 1780.65C255.287 1780.01 256.219 1779.44 257.222 1778.92L258.985 1780C258.24 1780.32 257.566 1780.7 256.964 1781.16C256.362 1781.65 255.875 1782.15 255.502 1782.67C255.158 1783.21 254.986 1783.76 254.986 1784.3C254.986 1785.07 255.172 1785.62 255.545 1785.93C255.918 1786.28 256.419 1786.45 257.05 1786.45C257.623 1786.45 258.053 1786.38 258.34 1786.24C258.627 1786.09 258.913 1785.88 259.2 1785.59ZM274.48 1763.44H263.515V1760.22H280.715L268.46 1776.77H279.855V1780H262.225L274.48 1763.44ZM286.131 1773.89C286.131 1774.64 286.303 1775.28 286.647 1775.83C287.02 1776.37 287.522 1776.79 288.152 1777.08C288.812 1777.33 289.557 1777.46 290.388 1777.46C291.449 1777.46 292.395 1777.25 293.226 1776.82C294.086 1776.39 294.76 1775.79 295.247 1775.01C295.763 1774.21 296.021 1773.29 296.021 1772.26L296.709 1774.84C296.709 1776.1 296.322 1777.15 295.548 1777.98C294.803 1778.81 293.871 1779.43 292.753 1779.83C291.664 1780.23 290.575 1780.43 289.485 1780.43C288.281 1780.43 287.149 1780.19 286.088 1779.7C285.056 1779.18 284.225 1778.45 283.594 1777.51C282.964 1776.56 282.648 1775.41 282.648 1774.07C282.648 1772.15 283.322 1770.61 284.669 1769.46C286.045 1768.29 287.952 1767.7 290.388 1767.7C291.822 1767.7 293.011 1767.87 293.957 1768.22C294.932 1768.53 295.706 1768.91 296.279 1769.34C296.853 1769.74 297.24 1770.07 297.44 1770.32V1772.35C296.437 1771.66 295.405 1771.17 294.344 1770.88C293.284 1770.57 292.151 1770.41 290.947 1770.41C289.829 1770.41 288.912 1770.55 288.195 1770.84C287.507 1771.13 286.991 1771.53 286.647 1772.04C286.303 1772.56 286.131 1773.18 286.131 1773.89ZM285.615 1764.78L283.938 1762.24C284.684 1761.7 285.701 1761.15 286.991 1760.61C288.31 1760.06 289.887 1759.79 291.721 1759.79C293.269 1759.79 294.617 1760.03 295.763 1760.52C296.939 1760.98 297.842 1761.65 298.472 1762.54C299.132 1763.43 299.461 1764.52 299.461 1765.81V1780H296.021V1766.28C296.021 1765.59 295.907 1765.04 295.677 1764.61C295.448 1764.15 295.118 1763.79 294.688 1763.53C294.287 1763.27 293.814 1763.09 293.269 1762.97C292.725 1762.86 292.151 1762.8 291.549 1762.8C290.575 1762.8 289.686 1762.91 288.883 1763.14C288.109 1763.37 287.45 1763.65 286.905 1763.96C286.361 1764.28 285.931 1764.55 285.615 1764.78ZM317.971 1767.96C317.971 1766.33 317.612 1765.09 316.896 1764.26C316.179 1763.43 315.133 1763.01 313.757 1763.01C312.753 1763.01 311.865 1763.23 311.091 1763.66C310.345 1764.06 309.758 1764.63 309.328 1765.38C308.926 1766.13 308.726 1766.99 308.726 1767.96V1780H305.286V1760.22H308.726V1763.32C309.385 1762.11 310.202 1761.22 311.177 1760.65C312.18 1760.08 313.327 1759.79 314.617 1759.79C316.709 1759.79 318.358 1760.49 319.562 1761.9C320.794 1763.27 321.411 1765.15 321.411 1767.53V1780H317.971V1767.96ZM327.877 1752.05C327.877 1751.39 328.107 1750.83 328.565 1750.37C329.053 1749.91 329.612 1749.68 330.242 1749.68C330.902 1749.68 331.461 1749.91 331.919 1750.37C332.378 1750.83 332.607 1751.39 332.607 1752.05C332.607 1752.68 332.378 1753.24 331.919 1753.73C331.461 1754.19 330.902 1754.41 330.242 1754.41C329.612 1754.41 329.053 1754.19 328.565 1753.73C328.107 1753.24 327.877 1752.68 327.877 1752.05ZM328.522 1760.22H331.962V1780H328.522V1760.22ZM346.701 1780.43C344.867 1780.43 343.233 1780 341.799 1779.14C340.395 1778.25 339.291 1777.03 338.488 1775.48C337.714 1773.94 337.327 1772.15 337.327 1770.11C337.327 1768.05 337.729 1766.24 338.531 1764.69C339.363 1763.14 340.509 1761.94 341.971 1761.08C343.462 1760.22 345.182 1759.79 347.131 1759.79C349.081 1759.79 350.743 1760.21 352.119 1761.04C353.524 1761.84 354.599 1763 355.344 1764.52C356.09 1766.04 356.462 1767.85 356.462 1769.94C356.462 1770.14 356.448 1770.35 356.419 1770.58C356.419 1770.78 356.419 1770.91 356.419 1770.97H339.52V1768.05H353.71L352.334 1770.02C352.42 1769.88 352.506 1769.67 352.592 1769.38C352.678 1769.06 352.721 1768.81 352.721 1768.6C352.721 1767.43 352.478 1766.41 351.99 1765.55C351.532 1764.69 350.887 1764.02 350.055 1763.53C349.224 1763.04 348.249 1762.8 347.131 1762.8C345.813 1762.8 344.68 1763.09 343.734 1763.66C342.817 1764.2 342.1 1765.01 341.584 1766.07C341.097 1767.1 340.839 1768.38 340.81 1769.89C340.81 1771.44 341.054 1772.76 341.541 1773.85C342.029 1774.94 342.745 1775.77 343.691 1776.34C344.637 1776.92 345.784 1777.2 347.131 1777.2C348.479 1777.2 349.668 1776.92 350.7 1776.34C351.732 1775.74 352.607 1774.84 353.323 1773.64L356.118 1775.4C355.086 1777.06 353.782 1778.32 352.205 1779.18C350.657 1780.01 348.823 1780.43 346.701 1780.43ZM362.037 1778.28C362.037 1777.62 362.266 1777.06 362.725 1776.6C363.212 1776.14 363.771 1775.91 364.402 1775.91C365.061 1775.91 365.62 1776.14 366.079 1776.6C366.538 1777.06 366.767 1777.62 366.767 1778.28C366.767 1778.91 366.538 1779.47 366.079 1779.96C365.62 1780.42 365.061 1780.65 364.402 1780.65C363.771 1780.65 363.212 1780.42 362.725 1779.96C362.266 1779.47 362.037 1778.91 362.037 1778.28ZM362.037 1761.94C362.037 1761.28 362.266 1760.72 362.725 1760.26C363.212 1759.8 363.771 1759.57 364.402 1759.57C365.061 1759.57 365.62 1759.8 366.079 1760.26C366.538 1760.72 366.767 1761.28 366.767 1761.94C366.767 1762.57 366.538 1763.13 366.079 1763.62C365.62 1764.08 365.061 1764.3 364.402 1764.3C363.771 1764.3 363.212 1764.08 362.725 1763.62C362.266 1763.13 362.037 1762.57 362.037 1761.94Z" fill="white"/>
<path d="M140.418 1886.46V1920H138.182V1886.46H140.418ZM157.317 1910.11C157.317 1912.23 156.887 1914.07 156.027 1915.61C155.196 1917.16 154.049 1918.35 152.587 1919.18C151.154 1920.01 149.548 1920.43 147.771 1920.43C146.108 1920.43 144.646 1919.99 143.385 1919.1C142.124 1918.18 141.135 1916.95 140.418 1915.4C139.73 1913.82 139.386 1912.06 139.386 1910.11C139.386 1908.13 139.73 1906.37 140.418 1904.82C141.135 1903.27 142.124 1902.05 143.385 1901.17C144.646 1900.25 146.108 1899.79 147.771 1899.79C149.548 1899.79 151.154 1900.21 152.587 1901.04C154.049 1901.87 155.196 1903.06 156.027 1904.61C156.887 1906.13 157.317 1907.96 157.317 1910.11ZM155.081 1910.11C155.081 1908.39 154.737 1906.91 154.049 1905.68C153.361 1904.45 152.444 1903.52 151.297 1902.89C150.15 1902.23 148.875 1901.9 147.47 1901.9C146.266 1901.9 145.119 1902.26 144.03 1902.97C142.941 1903.69 142.066 1904.66 141.407 1905.9C140.748 1907.13 140.418 1908.53 140.418 1910.11C140.418 1911.69 140.748 1913.09 141.407 1914.32C142.066 1915.56 142.941 1916.53 144.03 1917.25C145.119 1917.96 146.266 1918.32 147.47 1918.32C148.875 1918.32 150.15 1918.01 151.297 1917.38C152.444 1916.72 153.361 1915.77 154.049 1914.54C154.737 1913.31 155.081 1911.83 155.081 1910.11ZM162.289 1928.6H160.268C161.816 1925.27 162.948 1921.85 163.665 1918.32C164.381 1914.77 164.74 1911.17 164.74 1907.53C164.74 1903.86 164.381 1900.26 163.665 1896.74C162.948 1893.18 161.816 1889.76 160.268 1886.46H162.289C164.009 1889.67 165.256 1893.07 166.03 1896.65C166.832 1900.23 167.234 1903.86 167.234 1907.53C167.234 1911.17 166.832 1914.78 166.03 1918.37C165.256 1921.95 164.009 1925.36 162.289 1928.6ZM198.281 1902.33H185.854V1900.22H202.366L188.821 1917.89H202.022V1920H184.736L198.281 1902.33ZM216.386 1910.28V1908.17H224.986V1910.28H216.386ZM243.724 1912.78C243.724 1914.5 244.096 1915.86 244.842 1916.86C245.587 1917.84 246.762 1918.32 248.368 1918.32C249.486 1918.32 250.475 1918.05 251.335 1917.51C252.223 1916.96 252.911 1916.23 253.399 1915.31C253.915 1914.4 254.173 1913.38 254.173 1912.26V1900.22H256.409V1920H254.173V1915.87C253.628 1917.31 252.811 1918.42 251.722 1919.23C250.632 1920.03 249.342 1920.43 247.852 1920.43C245.788 1920.43 244.211 1919.77 243.122 1918.45C242.032 1917.1 241.488 1915.3 241.488 1913.03V1900.22H243.724V1912.78ZM305.485 1896.18L302.905 1920H300.54L304.023 1888.74L316.063 1911.87L328.103 1888.74L331.586 1920H329.221L326.641 1896.18L316.063 1916.52L305.485 1896.18ZM338.524 1920V1917.76H353.445V1920H338.524ZM338.524 1892.14V1889.9H353.445V1892.14H338.524ZM338.524 1904.61V1902.37H352.585V1904.61H338.524ZM337.277 1889.9H339.642V1920H337.277V1889.9ZM357.237 1892.14V1889.9H375.426V1892.14H367.514V1920H365.149V1892.14H357.237ZM378.28 1904.95C378.28 1907.44 378.81 1909.68 379.871 1911.66C380.96 1913.64 382.436 1915.2 384.3 1916.34C386.192 1917.46 388.342 1918.02 390.75 1918.02C393.158 1918.02 395.293 1917.46 397.157 1916.34C399.049 1915.2 400.525 1913.64 401.586 1911.66C402.646 1909.68 403.177 1907.44 403.177 1904.95C403.177 1902.43 402.646 1900.19 401.586 1898.24C400.525 1896.26 399.049 1894.72 397.157 1893.6C395.293 1892.45 393.158 1891.88 390.75 1891.88C388.342 1891.88 386.192 1892.45 384.3 1893.6C382.436 1894.72 380.96 1896.26 379.871 1898.24C378.81 1900.19 378.28 1902.43 378.28 1904.95ZM375.786 1904.95C375.786 1902.74 376.158 1900.71 376.904 1898.84C377.649 1896.95 378.695 1895.32 380.043 1893.94C381.39 1892.54 382.967 1891.45 384.773 1890.67C386.607 1889.9 388.6 1889.51 390.75 1889.51C392.9 1889.51 394.878 1889.9 396.684 1890.67C398.518 1891.45 400.109 1892.54 401.457 1893.94C402.804 1895.32 403.85 1896.95 404.596 1898.84C405.341 1900.71 405.714 1902.74 405.714 1904.95C405.714 1907.16 405.341 1909.21 404.596 1911.1C403.85 1912.96 402.804 1914.6 401.457 1916C400.109 1917.38 398.518 1918.45 396.684 1919.23C394.878 1920 392.9 1920.39 390.75 1920.39C388.6 1920.39 386.607 1920 384.773 1919.23C382.967 1918.45 381.39 1917.38 380.043 1916C378.695 1914.6 377.649 1912.96 376.904 1911.1C376.158 1909.21 375.786 1907.16 375.786 1904.95ZM411.225 1889.9H413.59V1920H411.225V1889.9ZM419.395 1920H412.515V1917.63H419.395C421.259 1917.63 422.95 1917.33 424.469 1916.73C426.017 1916.13 427.336 1915.28 428.425 1914.19C429.515 1913.08 430.346 1911.74 430.919 1910.2C431.521 1908.62 431.822 1906.87 431.822 1904.95C431.822 1903.03 431.521 1901.29 430.919 1899.75C430.346 1898.17 429.515 1896.84 428.425 1895.75C427.336 1894.63 426.017 1893.77 424.469 1893.17C422.95 1892.57 421.259 1892.26 419.395 1892.26H412.515V1889.9H419.395C422.319 1889.9 424.885 1890.53 427.092 1891.79C429.328 1893.05 431.063 1894.82 432.295 1897.08C433.557 1899.32 434.187 1901.94 434.187 1904.95C434.187 1907.96 433.557 1910.6 432.295 1912.86C431.063 1915.1 429.328 1916.85 427.092 1918.11C424.885 1919.37 422.319 1920 419.395 1920ZM440.802 1909.89L441.576 1907.66H455.465L456.239 1909.89H440.802ZM448.456 1894.2L442.608 1908.43L442.35 1908.95L437.835 1920H435.169L448.456 1888.74L461.743 1920H459.077L454.605 1909.12L454.39 1908.56L448.456 1894.2ZM475.613 1892.14V1889.9H493.802V1892.14H485.89V1920H483.525V1892.14H475.613ZM503.14 1905.64H505.763L516.04 1920H513.116L503.14 1905.64ZM498.023 1889.9H500.388V1920H498.023V1889.9ZM499.27 1892.01V1889.9H504.903C506.852 1889.9 508.587 1890.24 510.106 1890.93C511.654 1891.62 512.872 1892.61 513.761 1893.9C514.65 1895.19 515.094 1896.77 515.094 1898.63C515.094 1900.46 514.65 1902.04 513.761 1903.36C512.872 1904.68 511.654 1905.68 510.106 1906.37C508.587 1907.03 506.852 1907.36 504.903 1907.36H499.27V1905.25H504.903C506.422 1905.25 507.77 1905.01 508.945 1904.52C510.149 1904 511.081 1903.26 511.74 1902.28C512.399 1901.28 512.729 1900.06 512.729 1898.63C512.729 1897.2 512.385 1895.99 511.697 1895.02C511.038 1894.04 510.12 1893.3 508.945 1892.78C507.77 1892.26 506.422 1892.01 504.903 1892.01H499.27ZM521.305 1904.95C521.305 1907.44 521.835 1909.68 522.896 1911.66C523.985 1913.64 525.462 1915.2 527.325 1916.34C529.217 1917.46 531.367 1918.02 533.775 1918.02C536.183 1918.02 538.319 1917.46 540.182 1916.34C542.074 1915.2 543.55 1913.64 544.611 1911.66C545.672 1909.68 546.202 1907.44 546.202 1904.95C546.202 1902.43 545.672 1900.19 544.611 1898.24C543.55 1896.26 542.074 1894.72 540.182 1893.6C538.319 1892.45 536.183 1891.88 533.775 1891.88C531.367 1891.88 529.217 1892.45 527.325 1893.6C525.462 1894.72 523.985 1896.26 522.896 1898.24C521.835 1900.19 521.305 1902.43 521.305 1904.95ZM518.811 1904.95C518.811 1902.74 519.184 1900.71 519.929 1898.84C520.674 1896.95 521.721 1895.32 523.068 1893.94C524.415 1892.54 525.992 1891.45 527.798 1890.67C529.633 1889.9 531.625 1889.51 533.775 1889.51C535.925 1889.51 537.903 1889.9 539.709 1890.67C541.544 1891.45 543.135 1892.54 544.482 1893.94C545.829 1895.32 546.876 1896.95 547.621 1898.84C548.366 1900.71 548.739 1902.74 548.739 1904.95C548.739 1907.16 548.366 1909.21 547.621 1911.1C546.876 1912.96 545.829 1914.6 544.482 1916C543.135 1917.38 541.544 1918.45 539.709 1919.23C537.903 1920 535.925 1920.39 533.775 1920.39C531.625 1920.39 529.633 1920 527.798 1919.23C525.992 1918.45 524.415 1917.38 523.068 1916C521.721 1914.6 520.674 1912.96 519.929 1911.1C519.184 1909.21 518.811 1907.16 518.811 1904.95ZM539.193 1880.35L531.582 1886.93L530.335 1886.07L537.129 1879.19L539.193 1880.35ZM546.726 1925.42C547.127 1925.91 547.672 1926.32 548.36 1926.67C549.048 1927.04 549.807 1927.22 550.639 1927.22C551.814 1927.22 552.717 1926.84 553.348 1926.06C554.007 1925.29 554.337 1923.98 554.337 1922.15V1889.9H556.616V1922.58C556.616 1923.76 556.487 1924.77 556.229 1925.63C555.971 1926.49 555.584 1927.21 555.068 1927.78C554.58 1928.36 553.95 1928.77 553.176 1929.03C552.43 1929.32 551.556 1929.46 550.553 1929.46C549.807 1929.46 549.091 1929.33 548.403 1929.07C547.686 1928.82 547.084 1928.51 546.597 1928.17C546.081 1927.83 545.708 1927.51 545.479 1927.22L546.726 1925.42ZM563.739 1889.9H566.104V1920H563.739V1889.9ZM578.574 1889.9H581.584L568.34 1904L582.229 1920H579.219L565.416 1904.05L578.574 1889.9ZM588.657 1909.89L589.431 1907.66H603.32L604.094 1909.89H588.657ZM596.311 1894.2L590.463 1908.43L590.205 1908.95L585.69 1920H583.024L596.311 1888.74L609.598 1920H606.932L602.46 1909.12L602.245 1908.56L596.311 1894.2ZM610.329 1926.32L611.275 1927.74C610.959 1928.17 610.443 1928.56 609.727 1928.9C609.039 1929.27 608.236 1929.46 607.319 1929.46C606.229 1929.46 605.312 1929.29 604.567 1928.94C603.85 1928.63 603.305 1928.17 602.933 1927.57C602.56 1926.97 602.374 1926.28 602.374 1925.5C602.374 1924.59 602.66 1923.74 603.234 1922.97C603.836 1922.22 604.595 1921.53 605.513 1920.9C606.459 1920.27 607.433 1919.7 608.437 1919.18L609.598 1920C608.766 1920.37 607.964 1920.82 607.19 1921.33C606.444 1921.88 605.828 1922.45 605.341 1923.05C604.853 1923.68 604.61 1924.33 604.61 1924.99C604.61 1925.85 604.882 1926.48 605.427 1926.88C605.971 1927.28 606.645 1927.48 607.448 1927.48C608.136 1927.48 608.709 1927.37 609.168 1927.14C609.626 1926.91 610.013 1926.64 610.329 1926.32ZM607.552 1892.14V1889.9H625.741V1892.14H617.829V1920H615.464V1892.14H607.552ZM628.087 1909.89L628.861 1907.66H642.75L643.524 1909.89H628.087ZM635.741 1894.2L629.893 1908.43L629.635 1908.95L625.12 1920H622.454L635.741 1888.74L649.028 1920H646.362L641.89 1909.12L641.675 1908.56L635.741 1894.2Z" fill="white"/>
<path d="M339.215 2288.28V2286.17H347.815V2288.28H339.215ZM366.553 2290.78C366.553 2292.5 366.926 2293.86 367.671 2294.86C368.416 2295.84 369.592 2296.32 371.197 2296.32C372.315 2296.32 373.304 2296.05 374.164 2295.51C375.053 2294.96 375.741 2294.23 376.228 2293.31C376.744 2292.4 377.002 2291.38 377.002 2290.26V2278.22H379.238V2298H377.002V2293.87C376.457 2295.31 375.64 2296.42 374.551 2297.23C373.462 2298.03 372.172 2298.43 370.681 2298.43C368.617 2298.43 367.04 2297.77 365.951 2296.45C364.862 2295.1 364.317 2293.3 364.317 2291.03V2278.22H366.553V2290.78Z" fill="white"/>
<path d="M401.593 2181C405.032 2189.1 401.665 2330.39 399.551 2400.02M399.551 2400.02L417.592 2383.39M399.551 2400.02L384.509 2384.29" stroke="white" stroke-width="2"/>
<path d="M695.728 2085.37L389.153 2187.95M389.153 2187.95L427.505 2200.04M389.153 2187.95L411.85 2153.26" stroke="white" stroke-width="2"/>
<path d="M695 2085L393.11 2404.54M393.11 2404.54L434.65 2397.64M393.11 2404.54L399.091 2359.39" stroke="#FF0644" stroke-width="4"/>
<path d="M264 1907H288M288 1907L283.034 1901M288 1907L283.034 1913" stroke="white"/>
<path d="M552 2269H576M576 2269L571.034 2263M576 2269L571.034 2275" stroke="#FF0644"/>
<path d="M357 2263H381M381 2263L376.034 2257M381 2263L376.034 2269" stroke="white"/>
<path d="M507.168 2108.33H494.741V2106.22H511.253L497.708 2123.89H510.909V2126H493.623L507.168 2108.33Z" fill="white"/>
<path d="M491 2091H515M515 2091L510.034 2085M515 2091L510.034 2097" stroke="white"/>
<path d="M557.633 2278.22V2298H555.397V2278.22H557.633ZM564.212 2280.84C563.782 2280.53 563.366 2280.3 562.965 2280.15C562.592 2279.98 562.148 2279.9 561.632 2279.9C560.657 2279.9 559.869 2280.17 559.267 2280.71C558.694 2281.26 558.278 2281.99 558.02 2282.91C557.762 2283.82 557.633 2284.84 557.633 2285.96H556.601C556.601 2284.38 556.845 2282.99 557.332 2281.79C557.819 2280.56 558.479 2279.58 559.31 2278.86C560.17 2278.15 561.116 2277.79 562.148 2277.79C562.779 2277.79 563.366 2277.89 563.911 2278.09C564.484 2278.26 565 2278.56 565.459 2278.99L564.212 2280.84Z" fill="#FF0644"/>
</svg>
