<svg width="79" height="79" viewBox="0 0 79 79" fill="none" xmlns="http://www.w3.org/2000/svg">
<path d="M13.1663 65.8333C11.3559 65.8333 9.80555 65.1881 8.51522 63.8978C7.22489 62.6075 6.58082 61.0582 6.58301 59.25V19.75C6.58301 17.9395 7.22818 16.3892 8.51851 15.0988C9.80885 13.8085 11.3581 13.1644 13.1663 13.1666H65.833C67.6434 13.1666 69.1938 13.8118 70.4841 15.1021C71.7745 16.3925 72.4185 17.9417 72.4163 19.75V59.25C72.4163 61.0604 71.7712 62.6108 70.4808 63.9011C69.1905 65.1914 67.6412 65.8355 65.833 65.8333H13.1663ZM39.4997 42.7916L13.1663 26.3333V59.25H65.833V26.3333L39.4997 42.7916ZM39.4997 36.2083L65.833 19.75H13.1663L39.4997 36.2083ZM13.1663 26.3333V19.75V59.25V26.3333Z" fill="url(#paint0_linear_749_179)"/>
<defs>
<linearGradient id="paint0_linear_749_179" x1="72.4164" y1="13.1666" x2="-0.894171" y2="51.5535" gradientUnits="userSpaceOnUse">
<stop stop-color="#0500FF"/>
<stop offset="0.737023" stop-color="#CD1010"/>
</linearGradient>
</defs>
</svg>
