<svg width="61" height="61" viewBox="0 0 61 61" fill="none" xmlns="http://www.w3.org/2000/svg">
<path d="M49.8167 53.375L33.8042 37.3625C32.5333 38.3792 31.0719 39.184 29.4198 39.7771C27.7677 40.3701 26.0097 40.6667 24.1458 40.6667C19.5285 40.6667 15.6211 39.0671 12.4237 35.868C9.22625 32.6689 7.62669 28.7615 7.625 24.1458C7.625 19.5285 9.22456 15.6211 12.4237 12.4237C15.6228 9.22625 19.5302 7.62669 24.1458 7.625C28.7632 7.625 32.6714 9.22456 35.8705 12.4237C39.0697 15.6228 40.6684 19.5302 40.6667 24.1458C40.6667 26.0097 40.3701 27.7677 39.7771 29.4198C39.184 31.0719 38.3792 32.5333 37.3625 33.8042L53.375 49.8167L49.8167 53.375ZM24.1458 35.5833C27.3229 35.5833 30.0239 34.4718 32.2487 32.2487C34.4735 30.0256 35.585 27.3246 35.5833 24.1458C35.5833 20.9688 34.4718 18.2687 32.2487 16.0455C30.0256 13.8224 27.3246 12.71 24.1458 12.7083C20.9688 12.7083 18.2687 13.8207 16.0455 16.0455C13.8224 18.2703 12.71 20.9704 12.7083 24.1458C12.7083 27.3229 13.8207 30.0239 16.0455 32.2487C18.2703 34.4735 20.9704 35.585 24.1458 35.5833Z" fill="white"/>
</svg>
