<svg width="428" height="812" viewBox="0 0 428 812" fill="none" xmlns="http://www.w3.org/2000/svg">
<path d="M0 812H429L0 378.998V812Z" fill="url(#paint0_linear_82_230)"/>
<path d="M0 378.998L429 812V378.998V270L429 0H-7.62939e-06L0 378.998Z" fill="#121212"/>
<path d="M0 378.998V812H429L255.299 634.278C254.552 635.225 253.771 636.15 252.958 637.054C243.06 648.284 230.326 653.9 214.755 653.9C199.186 653.9 186.451 648.34 176.554 637.22C166.656 626.101 161.706 611.646 161.707 593.855C161.707 577.5 165.888 563.965 174.253 553.247L0 378.998Z" fill="#121212"/>
<path d="M233.283 612.267L196.233 575.223C195.903 580.775 195.738 586.985 195.738 593.855C195.738 614.314 197.184 628.881 200.075 637.554C203.078 646.339 207.972 650.731 214.756 650.731C221.54 650.731 226.378 646.394 229.269 637.721C231.281 631.908 232.619 623.424 233.283 612.267Z" fill="#121212"/>
<path d="M429 270L429 0H-7.62939e-06L0 378.998L174.253 553.247C174.988 552.306 175.754 551.387 176.553 550.489C186.452 539.369 199.186 533.809 214.756 533.809C230.326 533.81 243.059 539.37 252.957 550.489C262.967 561.72 267.971 576.175 267.972 593.855C267.972 610.098 263.748 623.572 255.299 634.278L429 812V378.998V270Z" fill="url(#paint1_linear_82_230)"/>
<path d="M196.233 575.223L233.283 612.267C233.609 606.777 233.774 600.639 233.773 593.855C233.773 573.395 232.271 558.773 229.269 549.988C226.378 541.315 221.539 536.979 214.756 536.978C207.971 536.979 203.078 541.371 200.075 550.155C198.16 555.974 196.879 564.33 196.233 575.223Z" fill="url(#paint2_linear_82_230)"/>
<defs>
<linearGradient id="paint0_linear_82_230" x1="214.5" y1="812" x2="214.5" y2="0" gradientUnits="userSpaceOnUse">
<stop stop-color="#0500FF"/>
<stop offset="1" stop-color="#CD1010"/>
</linearGradient>
<linearGradient id="paint1_linear_82_230" x1="214.5" y1="812" x2="214.5" y2="0" gradientUnits="userSpaceOnUse">
<stop stop-color="#0500FF"/>
<stop offset="1" stop-color="#CD1010"/>
</linearGradient>
<linearGradient id="paint2_linear_82_230" x1="214.5" y1="812" x2="214.5" y2="0" gradientUnits="userSpaceOnUse">
<stop stop-color="#0500FF"/>
<stop offset="1" stop-color="#CD1010"/>
</linearGradient>
</defs>
</svg>
