<svg width="1125" height="1124" viewBox="0 0 1125 1124" fill="none" xmlns="http://www.w3.org/2000/svg">
<path d="M0 1123.87H1124.01L0 0V1123.87Z" fill="url(#paint0_linear_1609_344)"/>
<path d="M0 0L1124.01 1123.87V0H0Z" fill="#101010"/>
<path d="M0 0V1123.87H1124.01L594.306 594.196C593.088 595.74 591.814 597.249 590.488 598.723C574.34 617.042 553.566 626.202 528.165 626.202C502.766 626.201 481.991 617.133 465.845 598.994C449.697 580.857 441.622 557.279 441.624 528.258C441.624 501.581 448.445 479.503 462.091 462.021L0 0Z" fill="#101010"/>
<path d="M558.391 558.292L497.948 497.867C497.41 506.923 497.141 517.053 497.141 528.259C497.142 561.631 499.499 585.392 504.217 599.54C509.115 613.868 517.099 621.032 528.166 621.033C539.234 621.032 547.126 613.958 551.843 599.811C555.125 590.33 557.308 576.491 558.391 558.292Z" fill="#101010"/>
<path d="M1124.01 0H0L462.091 462.021C463.289 460.486 464.54 458.986 465.844 457.522C481.991 439.384 502.765 430.315 528.166 430.315C553.566 430.316 574.339 439.385 590.487 457.522C606.816 475.841 614.98 499.42 614.981 528.259C614.981 554.754 608.09 576.733 594.306 594.196L1124.01 1123.87V0Z" fill="url(#paint1_linear_1609_344)"/>
<path d="M497.948 497.867L558.391 558.292C558.923 549.336 559.191 539.324 559.191 528.258C559.19 494.886 556.74 471.035 551.843 456.705C547.126 442.558 539.233 435.485 528.166 435.484C517.098 435.485 509.115 442.65 504.216 456.978C501.092 466.47 499.002 480.1 497.948 497.867Z" fill="url(#paint2_linear_1609_344)"/>
<defs>
<linearGradient id="paint0_linear_1609_344" x1="562.007" y1="1123.87" x2="562.007" y2="0" gradientUnits="userSpaceOnUse">
<stop stop-color="#0500FF"/>
<stop offset="1" stop-color="#CD1010"/>
</linearGradient>
<linearGradient id="paint1_linear_1609_344" x1="562.007" y1="1123.87" x2="562.007" y2="0" gradientUnits="userSpaceOnUse">
<stop stop-color="#0500FF"/>
<stop offset="1" stop-color="#CD1010"/>
</linearGradient>
<linearGradient id="paint2_linear_1609_344" x1="562.007" y1="1123.87" x2="562.007" y2="0" gradientUnits="userSpaceOnUse">
<stop stop-color="#0500FF"/>
<stop offset="1" stop-color="#CD1010"/>
</linearGradient>
</defs>
</svg>
