<svg width="430" height="924" viewBox="0 0 430 924" fill="none" xmlns="http://www.w3.org/2000/svg">
<path d="M0 924H430L0 492.031L0 924Z" fill="url(#paint0_linear_1609_346)"/>
<path d="M0 492.031L430 924L430 0H0L0 492.031Z" fill="#101010"/>
<path d="M0 492.031L0 924H430L255.894 746.997C255.145 747.942 254.362 748.867 253.548 749.769C243.626 760.986 230.863 766.594 215.256 766.595C199.65 766.594 186.886 761.042 176.966 749.935C167.044 738.83 162.083 724.393 162.084 706.623C162.084 690.288 166.275 676.77 174.659 666.066L0 492.031Z" fill="#101010"/>
<path d="M233.827 725.013L196.69 688.014C196.359 693.56 196.195 699.762 196.194 706.624C196.195 727.058 197.643 741.607 200.542 750.269C203.552 759.043 208.457 763.429 215.256 763.43C222.057 763.429 226.906 759.098 229.804 750.436C231.821 744.63 233.161 736.156 233.827 725.013Z" fill="#101010"/>
<path d="M430 924L430 0H0L0 492.031L174.659 666.066C175.396 665.126 176.164 664.208 176.965 663.311C186.886 652.205 199.65 646.652 215.257 646.652C230.862 646.652 243.626 652.206 253.547 663.311C263.58 674.528 268.596 688.965 268.596 706.623C268.596 722.847 264.362 736.304 255.894 746.997L430 924Z" fill="url(#paint1_linear_1609_346)"/>
<path d="M196.69 688.014L233.827 725.013C234.154 719.529 234.319 713.399 234.318 706.623C234.318 686.189 232.813 671.585 229.804 662.811C226.905 654.149 222.056 649.817 215.256 649.817C208.456 649.817 203.551 654.205 200.541 662.978C198.622 668.79 197.338 677.135 196.69 688.014Z" fill="url(#paint2_linear_1609_346)"/>
<defs>
<linearGradient id="paint0_linear_1609_346" x1="215" y1="924" x2="215" y2="0" gradientUnits="userSpaceOnUse">
<stop stop-color="#0500FF"/>
<stop offset="1" stop-color="#CD1010"/>
</linearGradient>
<linearGradient id="paint1_linear_1609_346" x1="215" y1="924" x2="215" y2="0" gradientUnits="userSpaceOnUse">
<stop stop-color="#0500FF"/>
<stop offset="1" stop-color="#CD1010"/>
</linearGradient>
<linearGradient id="paint2_linear_1609_346" x1="215" y1="924" x2="215" y2="0" gradientUnits="userSpaceOnUse">
<stop stop-color="#0500FF"/>
<stop offset="1" stop-color="#CD1010"/>
</linearGradient>
</defs>
</svg>
