<svg width="130" height="128" viewBox="0 0 130 128" fill="none" xmlns="http://www.w3.org/2000/svg">
<path fill-rule="evenodd" clip-rule="evenodd" d="M97.5 32C79.5507 14.3269 50.4493 14.3269 32.5 32C14.5507 49.6731 14.5507 78.3269 32.5 96L97.5 32Z" fill="black"/>
<path fill-rule="evenodd" clip-rule="evenodd" d="M32.5 96C50.4493 113.673 79.5507 113.673 97.5 96C115.449 78.3269 115.449 49.6731 97.5 32L32.5 96Z" fill="url(#paint0_linear_749_124)"/>
<path d="M32.5 96C40.8175 104.19 52.308 109.255 64.9999 109.255C90.3841 109.255 110.962 88.9936 110.962 63.9999C110.962 51.5033 105.817 40.1895 97.5 32L78.4168 50.7896C81.2955 54.3683 82.6867 58.8707 82.5905 64.297C82.4884 70.0525 80.7508 74.73 77.3771 78.3292C74.041 81.8928 69.7994 83.6304 64.6525 83.5419C59.5055 83.4534 55.3282 81.5712 52.1202 77.8951C51.9294 77.6764 51.7445 77.4541 51.5654 77.2279L32.5 96Z" fill="black"/>
<path d="M58.7758 70.1284C58.9314 73.5937 59.3041 76.2633 59.8939 78.1373C60.8359 81.0141 62.4282 82.4716 64.6707 82.5102C66.9133 82.5487 68.5375 81.1645 69.5434 78.3574C70.5868 75.5148 71.1675 70.7633 71.2855 64.1027C71.3264 61.7991 71.3045 59.7234 71.2197 57.876L58.7758 70.1284Z" fill="black"/>
<path d="M97.5 32C89.1825 23.8105 77.692 18.7452 65 18.7452C39.6159 18.7452 19.0381 39.0064 19.0381 64C19.0381 76.4968 24.1825 87.8105 32.5 96L51.5654 77.2279C48.7336 73.6521 47.366 69.1406 47.4625 63.6934C47.5652 57.9016 49.2846 53.2239 52.6208 49.6603C55.957 46.0967 60.1985 44.3592 65.3455 44.4476C70.4924 44.5361 74.6695 46.4365 77.8767 50.1487C78.0622 50.3589 78.2422 50.5726 78.4168 50.7896L97.5 32Z" fill="url(#paint1_linear_749_124)"/>
<path d="M71.2197 57.876C71.0581 54.3533 70.6681 51.6603 70.0498 49.797C69.144 46.957 67.5698 45.5178 65.3272 45.4793C63.0846 45.4407 61.4416 46.8428 60.3983 49.6854C59.3924 52.4924 58.8304 57.2262 58.7123 63.8867C58.6714 66.1948 58.6926 68.2754 58.7758 70.1285L71.2197 57.876Z" fill="url(#paint2_linear_749_124)"/>
<defs>
<linearGradient id="paint0_linear_749_124" x1="113.75" y1="48" x2="49.7577" y2="112.992" gradientUnits="userSpaceOnUse">
<stop stop-color="#0500FF"/>
<stop offset="1" stop-color="#CD1010"/>
</linearGradient>
<linearGradient id="paint1_linear_749_124" x1="81.25" y1="16" x2="17.2577" y2="80.9922" gradientUnits="userSpaceOnUse">
<stop stop-color="#0500FF"/>
<stop offset="1" stop-color="#CD1010"/>
</linearGradient>
<linearGradient id="paint2_linear_749_124" x1="81.25" y1="16" x2="17.2577" y2="80.9922" gradientUnits="userSpaceOnUse">
<stop stop-color="#0500FF"/>
<stop offset="1" stop-color="#CD1010"/>
</linearGradient>
</defs>
</svg>
