<svg width="57" height="68" viewBox="0 0 57 68" fill="none" xmlns="http://www.w3.org/2000/svg">
<path d="M45.2219 10.6533C42.737 7.70524 41.3676 3.91919 41.3686 0H30.1358V46.8444C30.0492 49.3794 29.0194 51.7806 27.2632 53.5422C25.507 55.3039 23.1615 56.2885 20.7207 56.2889C15.5587 56.2889 11.2691 51.9067 11.2691 46.4667C11.2691 39.9689 17.3036 35.0956 23.5198 37.0978V25.16C10.9783 23.4222 0 33.5467 0 46.4667C0 59.0467 10.0332 68 20.6843 68C32.0989 68 41.3686 58.3667 41.3686 46.4667V22.7044C45.9235 26.1039 51.3922 27.9278 57 27.9178V16.2444C57 16.2444 50.1658 16.5844 45.2219 10.6533Z" fill="url(#paint0_linear_749_178)"/>
<defs>
<linearGradient id="paint0_linear_749_178" x1="57" y1="4.83785e-06" x2="-14.9999" y2="25.2816" gradientUnits="userSpaceOnUse">
<stop stop-color="#0500FF"/>
<stop offset="0.737023" stop-color="#CD1010"/>
</linearGradient>
</defs>
</svg>
